<?xml version="1.0" encoding="UTF-8" standalone="no"?>
<!-- Created with Inkscape (http://www.inkscape.org/) -->

<svg
   width="16.933334mm"
   height="16.933334mm"
   viewBox="0 0 16.933335 16.933335"
   version="1.1"
   id="svg1"
   inkscape:version="1.3 (0e150ed6c4, 2023-07-21)"
   sodipodi:docname="calendar.svg"
   xmlns:inkscape="http://www.inkscape.org/namespaces/inkscape"
   xmlns:sodipodi="http://sodipodi.sourceforge.net/DTD/sodipodi-0.dtd"
   xmlns="http://www.w3.org/2000/svg"
   xmlns:svg="http://www.w3.org/2000/svg">
  <sodipodi:namedview
     id="namedview1"
     pagecolor="#ffffff"
     bordercolor="#000000"
     borderopacity="0.25"
     inkscape:showpageshadow="false"
     inkscape:pageopacity="0.0"
     inkscape:pagecheckerboard="false"
     inkscape:deskcolor="#d1d1d1"
     inkscape:document-units="px"
     borderlayer="true"
     labelstyle="default"
     shape-rendering="crispEdges"
     inkscape:clip-to-page="false"
     inkscape:zoom="8.1437115"
     inkscape:cx="-4.7275742"
     inkscape:cy="25.172797"
     inkscape:window-width="1920"
     inkscape:window-height="1017"
     inkscape:window-x="-8"
     inkscape:window-y="-8"
     inkscape:window-maximized="1"
     inkscape:current-layer="layer1" />
  <defs
     id="defs1" />
  <g
     inkscape:label="Слой 1"
     inkscape:groupmode="layer"
     id="layer1"
     transform="translate(-160.60205,-175.94794)">
    <path
       id="rect24-6-7-9"
       style="fill:#ffffff;fill-opacity:1;fill-rule:evenodd;stroke:#000000;stroke-width:0.661458;stroke-linecap:round;stroke-linejoin:round;stroke-dasharray:none"
       d="m 161.72653,177.96769 h 14.68002 v 14.58285 h -14.68002 z"
       sodipodi:nodetypes="ccccc" />
    <path
       style="fill:none;fill-opacity:1;stroke:#000000;stroke-width:0.661458;stroke-linecap:round;stroke-linejoin:round;stroke-dasharray:none;stroke-dashoffset:0;stroke-opacity:1"
       d="m 161.72653,180.92048 h 14.68002"
       id="path24-7-8-9"
       sodipodi:nodetypes="cc" />
    <path
       style="font-weight:bold;font-size:10.3107px;line-height:0;font-family:'Liberation Mono';-inkscape-font-specification:'Liberation Mono';letter-spacing:-0.966629px;fill:#db0000;stroke-width:0.0926053"
       d="m 164.07164,190.02302 v -1.04433 h 1.95669 v -4.45211 q -0.19617,0.40972 -0.7847,0.68954 -0.58347,0.27982 -1.22732,0.27982 v -1.0693 q 0.69918,0 1.25249,-0.30481 0.5533,-0.30481 0.83499,-0.83946 h 1.338 v 5.69632 h 1.62471 v 1.04433 z m 10.11546,-2.26853 q 0,0.69954 -0.31689,1.23919 -0.31186,0.53466 -0.91044,0.83446 -0.59355,0.29481 -1.39836,0.29481 -1.06638,0 -1.71021,-0.4747 -0.63883,-0.47968 -0.78973,-1.3841 l 1.41345,-0.11492 q 0.11066,0.44971 0.39234,0.65458 0.28169,0.20486 0.70924,0.20486 0.54325,0 0.85008,-0.3198 0.30684,-0.31978 0.30684,-0.90441 0,-0.51967 -0.29678,-0.82946 -0.29678,-0.31479 -0.82996,-0.31479 -0.58853,0 -0.96074,0.4547 h -1.37824 l 0.24648,-3.81254 h 4.26046 v 1.04434 h -2.9778 l -0.11569,1.62894 q 0.51306,-0.44972 1.28266,-0.44972 1.01104,0 1.61466,0.6196 0.60863,0.61462 0.60863,1.62896 z"
       id="text1-6-0-9-9-9"
       aria-label="15" />
    <path
       style="fill:none;fill-opacity:1;stroke:#000000;stroke-width:0.661458;stroke-linecap:round;stroke-linejoin:round;stroke-dasharray:none;stroke-dashoffset:0;stroke-opacity:1"
       d="m 165.77154,176.27867 v 2.95281"
       id="path24-7-8-6-3"
       sodipodi:nodetypes="cc" />
    <path
       style="fill:none;fill-opacity:1;stroke:#000000;stroke-width:0.661458;stroke-linecap:round;stroke-linejoin:round;stroke-dasharray:none;stroke-dashoffset:0;stroke-opacity:1"
       d="m 171.88187,176.27867 v 2.95281"
       id="path67-7"
       sodipodi:nodetypes="cc" />
  </g>
</svg>
