<?xml version="1.0" encoding="UTF-8" standalone="no"?>
<!-- Created with Inkscape (http://www.inkscape.org/) -->

<svg
   width="16.933334mm"
   height="16.933336mm"
   viewBox="0 0 16.933334 16.933336"
   version="1.1"
   id="svg1"
   inkscape:version="1.3 (0e150ed6c4, 2023-07-21)"
   sodipodi:docname="doc_stp.svg"
   xmlns:inkscape="http://www.inkscape.org/namespaces/inkscape"
   xmlns:sodipodi="http://sodipodi.sourceforge.net/DTD/sodipodi-0.dtd"
   xmlns="http://www.w3.org/2000/svg"
   xmlns:svg="http://www.w3.org/2000/svg">
  <sodipodi:namedview
     id="namedview1"
     pagecolor="#ffffff"
     bordercolor="#000000"
     borderopacity="0.25"
     inkscape:showpageshadow="false"
     inkscape:pageopacity="0.0"
     inkscape:pagecheckerboard="false"
     inkscape:deskcolor="#d1d1d1"
     inkscape:document-units="px"
     borderlayer="true"
     labelstyle="default"
     shape-rendering="crispEdges"
     inkscape:clip-to-page="false"
     inkscape:zoom="8.1437115"
     inkscape:cx="19.340076"
     inkscape:cy="27.014709"
     inkscape:window-width="1920"
     inkscape:window-height="1017"
     inkscape:window-x="-8"
     inkscape:window-y="-8"
     inkscape:window-maximized="1"
     inkscape:current-layer="layer1" />
  <defs
     id="defs1" />
  <g
     inkscape:label="Слой 1"
     inkscape:groupmode="layer"
     id="layer1"
     transform="translate(-98.425005,-139.43543)">
    <g
       id="g47"
       transform="translate(70.23536,75.349179)">
      <path
         style="opacity:1;fill:#ffffff;fill-opacity:1;stroke:#000000;stroke-width:0.661458;stroke-linecap:round;stroke-linejoin:round;stroke-dasharray:none;stroke-dashoffset:0;stroke-opacity:1;paint-order:normal"
         d="M 28.520374,80.688858 H 44.792249 V 67.988857 l -3.571875,-3.571876 h -12.7 z"
         id="path45"
         sodipodi:nodetypes="cccccc" />
      <path
         style="opacity:1;fill:#ffffff;fill-opacity:1;stroke:#000000;stroke-width:0.661458;stroke-linecap:round;stroke-linejoin:round;stroke-dasharray:none;stroke-dashoffset:0;stroke-opacity:1;paint-order:normal"
         d="m 41.220374,67.988857 h 3.571875 l -3.571875,-3.571876 z"
         id="path46"
         sodipodi:nodetypes="cccc" />
    </g>
    <g
       id="g48"
       transform="translate(71.924263,75.742765)">
      <path
         style="fill:#cb3131;fill-opacity:1;stroke:none;stroke-width:0.264583;stroke-linecap:round;stroke-dasharray:none;stroke-dashoffset:0;stroke-opacity:1"
         d="m 33.264146,73.604753 5.478651,-0.689242 v -5.521837 l -2.071988,-1.824698 -5.478655,0.689242 v 5.521836 z"
         id="path13-6-9-1-9" />
      <path
         id="path10-11-4-6-9"
         style="fill:#ffffff;fill-opacity:0.408824;stroke:none;stroke-width:0.264583;stroke-linecap:round;stroke-dasharray:none;stroke-dashoffset:0;stroke-opacity:1"
         d="m 36.670708,65.569068 -5.478689,0.688933 1.036206,0.912399 2.739348,-0.344254 1.035774,0.911966 2.739341,-0.344254 z m -1.703135,4.017993 -2.739348,0.344253 1.035771,0.912399 2.739351,-0.344687 z" />
      <path
         id="path11-4-2-3-8"
         style="fill:#000000;fill-opacity:0.279412;stroke:none;stroke-width:0.264583;stroke-linecap:round;stroke-dasharray:none;stroke-dashoffset:0;stroke-opacity:1"
         d="m 31.192019,66.258001 v 5.522262 l 2.071977,1.824364 V 70.843713 L 32.228225,69.931314 V 67.1704 Z m 3.775554,0.568145 v 2.760915 l 1.035774,0.911965 v -2.760914 z" />
    </g>
    <path
       id="path1"
       style="color:#000000;-inkscape-font-specification:'Liberation Mono';fill:#000000;-inkscape-stroke:none"
       d="M 106.26742 150.53294 L 106.10929 151.31067 L 105.63077 151.31067 L 105.63077 151.80677 L 105.68348 151.80677 L 106.09379 151.80677 L 106.09379 153.60356 C 106.09379 153.88514 106.17306 154.10339 106.33615 154.24228 C 106.49828 154.37839 106.7339 154.4433 107.03895 154.4433 C 107.34885 154.4433 107.66161 154.40033 107.97636 154.31462 L 108.01563 154.30274 L 108.01563 153.82008 L 107.95104 153.83403 C 107.65439 153.89593 107.3861 153.92602 107.14437 153.92602 C 106.97305 153.92602 106.85719 153.89073 106.79297 153.83403 C 106.72937 153.77643 106.6953 153.68663 106.6953 153.55085 L 106.6953 151.80677 L 107.88644 151.80677 L 107.88644 151.31067 L 106.6953 151.31067 L 106.6953 150.53346 L 106.26742 150.53294 z M 109.9411 151.25021 C 109.70489 151.25028 109.50748 151.29602 109.35354 151.39077 C 109.23589 151.46257 109.15168 151.5959 109.06828 151.73235 C 109.06728 151.70315 109.06615 151.68679 109.06415 151.65019 C 109.06115 151.55789 109.05833 151.48912 109.05433 151.44142 C 109.05233 151.41722 109.05013 151.39969 109.04813 151.38509 C 109.04713 151.37049 109.04846 151.36363 109.04451 151.34943 L 109.03263 151.31067 L 108.45075 151.31067 L 108.4585 151.36907 C 108.4688 151.46227 108.474 151.66866 108.474 151.9804 L 108.474 155.57036 L 109.07965 155.57036 L 109.07965 154.35132 C 109.07965 154.20593 109.07752 154.09454 109.07552 154.01749 C 109.07512 154.00081 109.07514 153.9906 109.07448 153.97873 C 109.11618 154.0492 109.16511 154.11094 109.22228 154.16373 C 109.39301 154.34249 109.62458 154.45312 109.9411 154.45312 C 110.31396 154.45312 110.60482 154.31482 110.79428 154.04126 C 110.98375 153.76769 111.07385 153.36587 111.07385 152.83978 L 111.07385 152.785 L 111.06196 152.785 C 111.05396 152.29116 110.97606 151.90221 110.79634 151.65019 C 110.60839 151.38473 110.31736 151.25034 109.94161 151.25021 L 109.9411 151.25021 z M 104.01743 151.26365 C 103.64083 151.26365 103.34802 151.3414 103.14048 151.50394 C 102.93378 151.66578 102.82835 151.89706 102.82835 152.17987 C 102.82835 152.34045 102.86485 152.47878 102.94153 152.59173 C 103.01693 152.70089 103.12537 152.79239 103.26192 152.86355 C 103.40495 152.93805 103.70894 153.02856 104.1952 153.14829 C 104.37632 153.19309 104.50752 153.25059 104.58794 153.31624 L 104.59 153.3183 C 104.669 153.3812 104.70524 153.45658 104.70524 153.56067 C 104.70524 153.70384 104.65349 153.79915 104.54298 153.86917 C 104.43243 153.93917 104.25627 153.97873 104.01381 153.97873 C 103.74092 153.97873 103.55072 153.94069 103.45105 153.87899 C 103.3496 153.81349 103.28479 153.71215 103.2521 153.56428 L 103.24021 153.51571 L 102.6971 153.62113 L 102.71105 153.67384 C 102.77425 153.93993 102.91045 154.1428 103.11929 154.26967 L 103.12136 154.26967 C 103.33249 154.39478 103.62983 154.45312 104.01381 154.45312 C 104.39976 154.45312 104.70642 154.3719 104.93158 154.203 C 105.15841 154.0324 105.27575 153.79036 105.27575 153.494 C 105.27575 153.32932 105.23459 153.18471 105.15224 153.06819 C 105.07184 152.95334 104.96216 152.85796 104.82461 152.78345 C 104.68587 152.70725 104.46789 152.63475 104.16626 152.56073 L 103.83811 152.47494 C 103.67365 152.43564 103.55705 152.38326 103.49033 152.32612 C 103.42593 152.26962 103.39679 152.20004 103.39679 152.10184 C 103.39679 151.97743 103.44034 151.89526 103.53942 151.83416 C 103.63852 151.77306 103.7983 151.73855 104.01795 151.73855 C 104.2311 151.73855 104.38763 151.77239 104.48458 151.83209 C 104.58298 151.89279 104.63636 151.97622 104.6546 152.09564 L 104.66235 152.1468 L 105.21736 152.07807 L 105.20547 152.02174 C 105.15527 151.77645 105.02469 151.58528 104.82048 151.45692 C 104.61643 151.32721 104.34728 151.26365 104.01795 151.26365 L 104.01743 151.26365 z M 109.81242 151.73855 C 110.04006 151.73855 110.19415 151.81661 110.29715 151.9804 L 110.29715 151.98247 C 110.39914 152.14299 110.45683 152.4293 110.45683 152.83978 C 110.45683 153.25957 110.39789 153.55831 110.29508 153.72861 C 110.1918 153.89962 110.03772 153.9808 109.80674 153.9808 C 109.54469 153.9808 109.36669 153.89748 109.2538 153.73068 C 109.14056 153.56337 109.08017 153.28657 109.08017 152.90076 C 109.08017 152.49818 109.14119 152.20423 109.25587 152.01761 L 109.25587 152.01554 C 109.36978 151.82852 109.54782 151.73855 109.81242 151.73855 z M 109.01764 153.93635 C 109.01881 153.93746 109.02045 153.93794 109.02126 153.93945 L 109.01971 153.94152 L 109.01816 153.94049 C 109.01806 153.93938 109.01774 153.93738 109.01764 153.93635 z " />
  </g>
</svg>
