<?xml version="1.0" encoding="UTF-8" standalone="no"?>
<!-- Created with Inkscape (http://www.inkscape.org/) -->

<svg
   width="16.93335mm"
   height="16.938129mm"
   viewBox="0 0 16.93335 16.938129"
   version="1.1"
   id="svg1"
   xml:space="preserve"
   xmlns="http://www.w3.org/2000/svg"
   xmlns:svg="http://www.w3.org/2000/svg"><defs
     id="defs1" /><g
     id="layer1"
     transform="translate(-109.81988,-147.35261)"><path
       style="fill:#e7a700;fill-opacity:1;stroke:none;stroke-width:0.264583;stroke-linecap:round;stroke-dasharray:none;stroke-dashoffset:0;stroke-opacity:1"
       d="m 121.67562,159.45958 5.07759,-0.63879 v -5.11762 l -1.92031,-1.69113 -5.07761,0.63879 v 5.11762 z"
       id="path13-6-9-1-71-2-8" /><path
       style="fill:#ffffff;fill-opacity:0.408824;stroke:none;stroke-width:0.264583;stroke-linecap:round;stroke-dasharray:none;stroke-dashoffset:0;stroke-opacity:1"
       d="m 119.75529,152.65083 5.07761,-0.63879 1.9203,1.69113 -5.07759,0.63879 z"
       id="path10-1-9-6-6-2" /><path
       style="fill:#000000;fill-opacity:0.279412;stroke:none;stroke-width:0.264583;stroke-linecap:round;stroke-dasharray:none;stroke-dashoffset:0;stroke-opacity:1"
       d="m 121.67561,154.34196 -1.92032,-1.69113 v 5.11762 l 1.92032,1.69113 z"
       id="path11-8-1-4-3-5" /><path
       style="fill:#ffffff;fill-opacity:0.501961;stroke:#000000;stroke-width:0.661458;stroke-linecap:round;stroke-linejoin:round;stroke-dasharray:none;stroke-dashoffset:0;stroke-opacity:1"
       d="m 115.05788,158.20056 6.54009,5.75949 -6e-5,-10.51726 -6.54009,-5.7595 z"
       id="path35-3-8-3-8" /><path
       style="fill:#626262;fill-opacity:1;stroke:none;stroke-width:0.264583;stroke-linecap:round;stroke-dasharray:none;stroke-dashoffset:0;stroke-opacity:1"
       d="m 111.74023,160.70952 5.07757,-0.63879 v -5.11762 l -1.92029,-1.69113 -5.07761,0.63879 v 5.11762 z"
       id="path13-6-9-1-71-2" /><path
       style="fill:#000000;fill-opacity:0.279412;stroke:none;stroke-width:0.264583;stroke-linecap:round;stroke-dasharray:none;stroke-dashoffset:0;stroke-opacity:1"
       d="m 111.74021,155.5919 -1.92033,-1.69113 v 5.11762 l 1.92033,1.69113 z"
       id="path11-8-1-4-3" /><path
       style="fill:#ffffff;fill-opacity:0.408824;stroke:none;stroke-width:0.264583;stroke-linecap:round;stroke-dasharray:none;stroke-dashoffset:0;stroke-opacity:1"
       d="m 109.81988,153.90077 5.07762,-0.63879 1.92029,1.69113 -5.07758,0.63879 z"
       id="path10-1-9-6-6" /></g></svg>
