<?xml version="1.0" encoding="UTF-8" standalone="no"?>
<!-- Created with Inkscape (http://www.inkscape.org/) -->

<svg
   width="16.933607mm"
   height="16.933353mm"
   viewBox="0 0 16.933607 16.933353"
   version="1.1"
   id="svg1"
   inkscape:version="1.3.2 (091e20e, 2023-11-25, custom)"
   sodipodi:docname="ICONS.svg"
   xml:space="preserve"
   inkscape:export-filename="arrow_down.svg"
   inkscape:export-xdpi="96"
   inkscape:export-ydpi="96"
   xmlns:inkscape="http://www.inkscape.org/namespaces/inkscape"
   xmlns:sodipodi="http://sodipodi.sourceforge.net/DTD/sodipodi-0.dtd"
   xmlns="http://www.w3.org/2000/svg"
   xmlns:svg="http://www.w3.org/2000/svg"><sodipodi:namedview
     id="namedview1"
     pagecolor="#ffffff"
     bordercolor="#000000"
     borderopacity="0.25"
     inkscape:showpageshadow="false"
     inkscape:pageopacity="0.0"
     inkscape:pagecheckerboard="false"
     inkscape:deskcolor="#d1d1d1"
     inkscape:document-units="px"
     borderlayer="true"
     labelstyle="default"
     shape-rendering="crispEdges"
     inkscape:clip-to-page="false"
     inkscape:zoom="0.99999996"
     inkscape:cx="214.50001"
     inkscape:cy="705.00003"
     inkscape:window-width="1920"
     inkscape:window-height="1017"
     inkscape:window-x="-8"
     inkscape:window-y="-8"
     inkscape:window-maximized="1"
     inkscape:current-layer="layer1"
     showguides="true" /><defs
     id="defs1" /><g
     inkscape:label="Слой 1"
     inkscape:groupmode="layer"
     id="layer1"
     transform="translate(-59.802576,-62.628569)"><path
       style="fill:#616161;fill-opacity:1;stroke:none;stroke-width:0.264583;stroke-linecap:round;stroke-dasharray:none;stroke-dashoffset:0;stroke-opacity:1"
       d="m 62.284785,72.254601 6.56285,-0.82564 v -6.61459 l -2.48202,-2.1858 -6.56287,0.825641 v 6.61459 z"
       id="path13-6-9-1-7" /><path
       style="fill:#00d401;fill-opacity:1;stroke:none;stroke-width:0.264583;stroke-linecap:round;stroke-dasharray:none;stroke-dashoffset:0;stroke-opacity:1"
       d="m 65.566195,68.534486 3.28144,-0.41282 v -3.30729 l -1.24101,-1.0929 -3.28143,0.41282 v 3.30729 z"
       id="path13-3-6-8-1" /><path
       id="path10-11-4-6-3"
       style="fill:#ffffff;fill-opacity:0.408824;stroke:none;stroke-width:0.264583;stroke-linecap:round;stroke-dasharray:none;stroke-dashoffset:0;stroke-opacity:1"
       d="m 66.365495,62.628682 -6.56292,0.82527 1.24127,1.09296 3.28147,-0.41238 1.24075,1.09244 3.28144,-0.41238 z m -2.04018,4.81314 -3.28147,0.41238 1.24076,1.09296 3.28146,-0.4129 z" /><path
       id="path11-4-2-3-2"
       style="fill:#000000;fill-opacity:0.279412;stroke:none;stroke-width:0.264583;stroke-linecap:round;stroke-dasharray:none;stroke-dashoffset:0;stroke-opacity:1"
       d="m 59.802575,63.453951 v 6.6151 l 2.48203,2.1854 v -3.30729 l -1.24076,-1.09296 v -3.307289 z m 4.52274,0.680581 v 3.307289 l 1.24075,1.09244 v -3.30729 z" /><g
       id="g18"
       style="fill:none;fill-opacity:1;stroke-width:0.529167;stroke-dasharray:none"
       transform="translate(-43.056758,19.082071)"><path
         style="fill:none;fill-opacity:1;stroke:#000000;stroke-width:0.529167;stroke-linecap:round;stroke-linejoin:round;stroke-dasharray:none;stroke-dashoffset:0;stroke-opacity:1"
         d="m 104.53365,54.214451 c -0.0498,1.456005 0.93344,2.463932 2.18529,2.463932 h 3.23867"
         id="path17"
         sodipodi:nodetypes="ccc" /><path
         style="fill:none;fill-opacity:1;stroke:#000000;stroke-width:0.529167;stroke-linecap:round;stroke-linejoin:round;stroke-dasharray:none;stroke-dashoffset:0;stroke-opacity:1"
         d="m 108.01333,55.555851 1.94428,1.122532 -1.94428,1.122532"
         id="path18-1"
         sodipodi:nodetypes="ccc"
         inkscape:transform-center-x="0.972141"
         inkscape:transform-center-y="0.410875" /></g><path
       style="fill:#e7a700;fill-opacity:1;stroke:none;stroke-width:0.264583;stroke-linecap:round;stroke-dasharray:none;stroke-dashoffset:0;stroke-opacity:1"
       d="m 70.173335,79.561917 6.56285,-0.82564 v -6.61459 l -2.48203,-2.1858 -6.56286,0.825641 v 6.61459 z"
       id="path13-6-9-1-7-9" /><path
       style="fill:#616161;fill-opacity:1;stroke:none;stroke-width:0.264583;stroke-linecap:round;stroke-dasharray:none;stroke-dashoffset:0;stroke-opacity:1"
       d="m 73.454755,75.841802 3.28143,-0.41282 v -3.30729 l -1.24102,-1.0929 -3.28141,0.41282 v 3.30729 z"
       id="path13-3-6-8-1-2" /><path
       id="path10-11-4-6-3-9"
       style="fill:#ffffff;fill-opacity:0.408824;stroke:none;stroke-width:0.264583;stroke-linecap:round;stroke-dasharray:none;stroke-dashoffset:0;stroke-opacity:1"
       d="m 74.254045,69.935998 -6.56292,0.82527 1.24127,1.09296 3.28146,-0.41238 1.24075,1.09244 3.28145,-0.41238 z m -2.04019,4.81314 -3.28146,0.41238 1.24076,1.09296 3.28145,-0.4129 z" /><path
       id="path11-4-2-3-2-1"
       style="fill:#000000;fill-opacity:0.279412;stroke:none;stroke-width:0.264583;stroke-linecap:round;stroke-dasharray:none;stroke-dashoffset:0;stroke-opacity:1"
       d="m 67.691125,70.761267 v 6.6151 l 2.48203,2.1854 v -3.30729 l -1.24076,-1.09296 v -3.307289 z m 4.52273,0.680581 v 3.307289 l 1.24075,1.09244 v -3.30729 z" /></g></svg>
