<?xml version="1.0" encoding="UTF-8" standalone="no"?>
<!-- Created with Inkscape (http://www.inkscape.org/) -->

<svg
   width="16.933325mm"
   height="16.933334mm"
   viewBox="0 0 16.933325 16.933334"
   version="1.1"
   id="svg1"
   xml:space="preserve"
   sodipodi:docname="manual_move_features.svg"
   inkscape:version="1.3.2 (091e20e, 2023-11-25, custom)"
   xmlns:inkscape="http://www.inkscape.org/namespaces/inkscape"
   xmlns:sodipodi="http://sodipodi.sourceforge.net/DTD/sodipodi-0.dtd"
   xmlns="http://www.w3.org/2000/svg"
   xmlns:svg="http://www.w3.org/2000/svg"><sodipodi:namedview
     id="namedview1"
     pagecolor="#ffffff"
     bordercolor="#000000"
     borderopacity="0.25"
     inkscape:showpageshadow="2"
     inkscape:pageopacity="0.0"
     inkscape:pagecheckerboard="0"
     inkscape:deskcolor="#d1d1d1"
     inkscape:document-units="mm"
     inkscape:zoom="3.1640623"
     inkscape:cx="-16.908643"
     inkscape:cy="29.076545"
     inkscape:current-layer="svg1" /><defs
     id="defs1" /><path
     style="fill:none;stroke:#515151;stroke-width:0.661458;stroke-linecap:round;stroke-linejoin:round;stroke-dasharray:none;stroke-opacity:1"
     d="M 6.88363,5.80703 5.93617,5.94217 4.63014,5.66116 3.6174,5.89817"
     id="path16-7-2" /><path
     style="fill:none;stroke:#515151;stroke-width:0.661458;stroke-linecap:round;stroke-linejoin:round;stroke-dasharray:none;stroke-opacity:1"
     d="M 3.72498,9.42363 5.11016,9.07221 6.57652,9.77005 8.13693,9.75065 9.50471,9.82615"
     id="path16-7-29" /><path
     style="fill:#e7a700;fill-opacity:1;stroke:none;stroke-width:0.264583;stroke-linecap:round;stroke-dasharray:none;stroke-dashoffset:0;stroke-opacity:1"
     d="M 13.55936,8.39953 16.93333,7.97506 V 4.57449 L 15.65731,3.45076 12.28334,3.87522 V 7.2758 Z"
     id="path13-6-9-1-71-2-8-9-8" /><path
     style="fill:#ffffff;fill-opacity:0.408824;stroke:none;stroke-width:0.264583;stroke-linecap:round;stroke-dasharray:none;stroke-dashoffset:0;stroke-opacity:1"
     d="m 12.28334,3.87522 3.37397,-0.42446 1.276,1.12373 -3.37395,0.42448 z"
     id="path10-1-9-6-6-2-5-9" /><path
     style="fill:#000000;fill-opacity:0.279412;stroke:none;stroke-width:0.264583;stroke-linecap:round;stroke-dasharray:none;stroke-dashoffset:0;stroke-opacity:1"
     d="M 13.55936,4.99898 12.28334,3.87524 v 3.40058 l 1.27602,1.12372 z"
     id="path11-8-1-4-3-5-3-6" /><path
     style="fill:#e7a700;fill-opacity:1;stroke:none;stroke-width:0.264583;stroke-linecap:round;stroke-dasharray:none;stroke-dashoffset:0;stroke-opacity:1"
     d="M 9.50836,8.80157 12.88233,8.3771 V 4.97653 L 11.60631,3.8528 8.23234,4.27727 v 3.40057 z"
     id="path13-6-9-1-71-2-8-9" /><path
     style="fill:#ffffff;fill-opacity:0.408824;stroke:none;stroke-width:0.264583;stroke-linecap:round;stroke-dasharray:none;stroke-dashoffset:0;stroke-opacity:1"
     d="M 8.23234,4.27727 11.60631,3.8528 12.88232,4.97653 9.50836,5.40101 Z"
     id="path10-1-9-6-6-2-5" /><path
     style="fill:#000000;fill-opacity:0.279412;stroke:none;stroke-width:0.264583;stroke-linecap:round;stroke-dasharray:none;stroke-dashoffset:0;stroke-opacity:1"
     d="M 9.50836,5.40101 8.23234,4.27727 v 3.40057 l 1.27602,1.12373 z"
     id="path11-8-1-4-3-5-3" /><path
     style="fill:#e7a700;fill-opacity:1;stroke:none;stroke-width:0.264583;stroke-linecap:round;stroke-dasharray:none;stroke-dashoffset:0;stroke-opacity:1"
     d="M 11.32001,4.96726 14.69398,4.5428 V 1.14222 L 13.41796,0.0185 10.04399,0.44296 v 3.40058 z"
     id="path13-6-9-1-71-2-8-9-7" /><path
     style="fill:#ffffff;fill-opacity:0.408824;stroke:none;stroke-width:0.264583;stroke-linecap:round;stroke-dasharray:none;stroke-dashoffset:0;stroke-opacity:1"
     d="m 10.04399,0.44296 3.37397,-0.42446 1.276,1.12372 -3.37395,0.42448 z"
     id="path10-1-9-6-6-2-5-2" /><path
     style="fill:#000000;fill-opacity:0.279412;stroke:none;stroke-width:0.264583;stroke-linecap:round;stroke-dasharray:none;stroke-dashoffset:0;stroke-opacity:1"
     d="M 11.32001,1.5667 10.04399,0.44296 v 3.40058 l 1.27602,1.12372 z"
     id="path11-8-1-4-3-5-3-0" /><path
     style="fill:#626262;fill-opacity:1;stroke:none;stroke-width:0.264583;stroke-linecap:round;stroke-dasharray:none;stroke-dashoffset:0;stroke-opacity:1"
     d="M 0.75634,10.86942 2.75618,10.61783 V 8.60222 L 1.99986,7.93616 1e-5,8.18775 v 2.01561 z"
     id="path13-6-9-1-71-2-7" /><path
     style="fill:#000000;fill-opacity:0.279412;stroke:none;stroke-width:0.264583;stroke-linecap:round;stroke-dasharray:none;stroke-dashoffset:0;stroke-opacity:1"
     d="M 0.75634,8.85381 0,8.18775 v 2.01561 l 0.75634,0.66606 z"
     id="path11-8-1-4-3-1" /><path
     style="fill:#ffffff;fill-opacity:0.408824;stroke:none;stroke-width:0.264583;stroke-linecap:round;stroke-dasharray:none;stroke-dashoffset:0;stroke-opacity:1"
     d="M 0,8.18775 1.99985,7.93616 2.75617,8.60222 0.75634,8.85381 Z"
     id="path10-1-9-6-6-8" /><path
     style="fill:#626262;fill-opacity:1;stroke:none;stroke-width:0.264583;stroke-linecap:round;stroke-dasharray:none;stroke-dashoffset:0;stroke-opacity:1"
     d="M 0.75634,7.13475 2.75618,6.88316 V 4.86755 L 1.99986,4.20149 1e-5,4.45308 v 2.01561 z"
     id="path13-6-9-1-71-2-7-4" /><path
     style="fill:#000000;fill-opacity:0.279412;stroke:none;stroke-width:0.264583;stroke-linecap:round;stroke-dasharray:none;stroke-dashoffset:0;stroke-opacity:1"
     d="M 0.75634,5.11914 0,4.45308 v 2.01561 l 0.75634,0.66606 z"
     id="path11-8-1-4-3-1-3" /><path
     style="fill:#ffffff;fill-opacity:0.408824;stroke:none;stroke-width:0.264583;stroke-linecap:round;stroke-dasharray:none;stroke-dashoffset:0;stroke-opacity:1"
     d="M 0,4.45308 1.99985,4.20149 2.75617,4.86755 0.75634,5.11914 Z"
     id="path10-1-9-6-6-8-3" /><path
     style="fill:none;fill-opacity:1;stroke:#000000;stroke-width:0.529167;stroke-linecap:round;stroke-linejoin:round;stroke-dasharray:none;stroke-dashoffset:0;stroke-opacity:1"
     d="M 13.86704,10.07407 C 13.91684,11.53008 12.9336,12.538 11.68175,12.538 H 6.97008"
     id="path17-8-2" /><path
     style="fill:none;fill-opacity:1;stroke:#000000;stroke-width:0.529167;stroke-linecap:round;stroke-linejoin:round;stroke-dasharray:none;stroke-dashoffset:0;stroke-opacity:1"
     d="M 8.91436,11.41547 6.97008,12.538 8.91436,13.66053"
     id="path18-1-6-1" /><path
     style="fill:#00d401;fill-opacity:1;stroke:none;stroke-width:0.264583;stroke-linecap:round;stroke-dasharray:none;stroke-dashoffset:0;stroke-opacity:1"
     d="M 0.75634,16.93333 2.75618,16.68174 V 14.66613 L 1.99986,14.00007 1e-5,14.25166 v 2.01561 z"
     id="path50" /><path
     style="fill:#000000;fill-opacity:0.279412;stroke:none;stroke-width:0.264583;stroke-linecap:round;stroke-dasharray:none;stroke-dashoffset:0;stroke-opacity:1"
     d="M 0.75634,14.91772 0,14.25166 v 2.01561 l 0.75634,0.66606 z"
     id="path52" /><path
     style="fill:#ffffff;fill-opacity:0.408824;stroke:none;stroke-width:0.264583;stroke-linecap:round;stroke-dasharray:none;stroke-dashoffset:0;stroke-opacity:1"
     d="m 0,14.25166 1.99985,-0.25159 0.75632,0.66606 -1.99983,0.25159 z"
     id="path57" /><path
     style="fill:none;stroke:#515151;stroke-width:0.661458;stroke-linecap:round;stroke-linejoin:round;stroke-dasharray:none;stroke-opacity:1"
     d="M 9.09671,15.87185 7.82078,15.94895 6.24516,15.64307 4.46627,16.05579 3.6174,15.57976"
     id="path58" /></svg>
