<?xml version="1.0" encoding="UTF-8" standalone="no"?>
<!-- Created with Inkscape (http://www.inkscape.org/) -->

<svg
   width="16.93334mm"
   height="16.933327mm"
   viewBox="0 0 16.93334 16.933327"
   version="1.1"
   id="svg1"
   inkscape:version="1.3.2 (091e20e, 2023-11-25, custom)"
   sodipodi:docname="ICONS.svg"
   xml:space="preserve"
   inkscape:export-filename="arrow_down.svg"
   inkscape:export-xdpi="96"
   inkscape:export-ydpi="96"
   xmlns:inkscape="http://www.inkscape.org/namespaces/inkscape"
   xmlns:sodipodi="http://sodipodi.sourceforge.net/DTD/sodipodi-0.dtd"
   xmlns="http://www.w3.org/2000/svg"
   xmlns:svg="http://www.w3.org/2000/svg"><sodipodi:namedview
     id="namedview1"
     pagecolor="#ffffff"
     bordercolor="#000000"
     borderopacity="0.25"
     inkscape:showpageshadow="false"
     inkscape:pageopacity="0.0"
     inkscape:pagecheckerboard="false"
     inkscape:deskcolor="#d1d1d1"
     inkscape:document-units="px"
     borderlayer="true"
     labelstyle="default"
     shape-rendering="crispEdges"
     inkscape:clip-to-page="false"
     inkscape:zoom="4"
     inkscape:cx="525"
     inkscape:cy="530.25"
     inkscape:window-width="1920"
     inkscape:window-height="1017"
     inkscape:window-x="-8"
     inkscape:window-y="-8"
     inkscape:window-maximized="1"
     inkscape:current-layer="layer1"
     showguides="true" /><defs
     id="defs1"><inkscape:path-effect
       effect="fillet_chamfer"
       id="path-effect61"
       is_visible="true"
       lpeversion="1"
       nodesatellites_param="F,0,0,1,0,0,0,1 @ F,0,0,1,0,0,0,1 @ F,0,0,1,0,0,0,1 @ F,0,0,1,0,0,0,1 @ F,0,0,1,0,0,0,1 @ F,0,0,1,0,0,0,1"
       radius="0"
       unit="px"
       method="auto"
       mode="F"
       chamfer_steps="1"
       flexible="false"
       use_knot_distance="true"
       apply_no_radius="true"
       apply_with_radius="true"
       only_selected="false"
       hide_knots="false" /></defs><g
     inkscape:label="Слой 1"
     inkscape:groupmode="layer"
     id="layer1"
     transform="translate(-129.92305,-127.47162)"><ellipse
       style="fill:#ededed;fill-opacity:1;fill-rule:evenodd;stroke:#000000;stroke-width:0.661458;stroke-dasharray:none;stroke-opacity:1"
       id="path50-9"
       cx="138.38972"
       cy="131.21669"
       rx="8.1359377"
       ry="2.9733262" /><ellipse
       style="fill:#9b9b9b;fill-opacity:1;fill-rule:evenodd;stroke:#000000;stroke-width:0.661458;stroke-dasharray:none;stroke-opacity:1"
       id="ellipse60"
       cx="138.38972"
       cy="131.21669"
       rx="6.3556724"
       ry="1.8935714" /><path
       id="ellipse61"
       style="fill:#ededed;fill-opacity:1;fill-rule:evenodd;stroke:#000000;stroke-width:0.661458"
       d="m 146.52565,131.21669 c 0,1.64213 -3.64258,2.97333 -8.13593,2.97333 -4.49335,0 -8.13594,-1.3312 -8.13594,-2.97333 v 9.4432 c 1e-5,1.64212 3.6426,2.97332 8.13594,2.97332 4.49334,0 8.13592,-1.33121 8.13593,-2.97332 z"
       sodipodi:nodetypes="csccscc" /><path
       style="fill:#ff0f44;fill-opacity:1;stroke:none;stroke-width:0.253286px;stroke-linecap:butt;stroke-linejoin:miter;stroke-opacity:1"
       d="m 161.83319,154.51198 c -0.60804,2.94665 0.0324,4.04694 0.80555,3.4217 1.97156,-1.59425 1.25901,-0.23325 1.64706,2.82803 0.38812,3.06116 2.6209,2.3374 2.97744,-5.16241 l 0.42374,-1.26836 -4.60819,-0.73484 z"
       id="path57-6"
       sodipodi:nodetypes="csccccc"
       inkscape:path-effect="#path-effect61"
       inkscape:original-d="m 161.83319,154.51198 c -0.60804,2.94665 0.0324,4.04694 0.80555,3.4217 1.97156,-1.59425 1.25901,-0.23325 1.64706,2.82803 0.38812,3.06116 2.6209,2.3374 2.97744,-5.16241 l 0.42374,-1.26836 -4.60819,-0.73484 z"
       transform="matrix(1.0445504,0,0,1.0446546,-36.996619,-28.715331)" /><path
       id="ellipse62"
       style="fill:#ff0f44;fill-opacity:1;fill-rule:evenodd;stroke:none;stroke-width:0.661458;stroke-dasharray:none;stroke-opacity:1"
       d="m 138.38949,130.37371 c -2.54412,0.001 -4.8404,0.45458 -5.83671,1.15202 0.0472,0.0458 0.10539,0.094 0.17813,0.14522 0.27318,0.19242 0.71107,0.39049 1.2631,0.55495 1.10407,0.32894 2.66715,0.53876 4.3944,0.53876 1.72725,0 3.29249,-0.20982 4.39656,-0.53876 0.55204,-0.16446 0.98777,-0.36253 1.26094,-0.55495 0.0754,-0.0531 0.13467,-0.1029 0.18298,-0.15008 -1.00168,-0.6958 -3.29821,-1.14696 -5.8394,-1.14716 z"
       sodipodi:nodetypes="ccssssscc" /><path
       id="path108"
       style="color:#000000;fill:#900020;fill-opacity:1;fill-rule:evenodd;stroke-width:1;-inkscape-stroke:none"
       d="m 132.04592,132.69881 c -0.0514,0.24904 -0.0914,0.48062 -0.12631,0.70449 0.18891,0.0851 0.38759,0.16619 0.59755,0.24292 1.36507,0.49888 3.16378,0.81707 5.16089,0.87886 0.0147,-0.22401 0.0287,-0.45358 0.0399,-0.69045 l 5.4e-4,-0.001 c -1.94401,-0.0592 -3.6888,-0.37062 -4.96279,-0.83621 -0.25671,-0.0938 -0.49375,-0.1941 -0.70983,-0.29853 z" /><path
       id="path106"
       style="color:#000000;fill:#900020;fill-opacity:1;fill-rule:evenodd;stroke-width:1;-inkscape-stroke:none"
       d="m 133.13305,131.8993 -0.61913,0.45563 c 0.34511,0.20815 0.77649,0.38368 1.28253,0.53444 1.07347,0.31982 2.48368,0.52235 4.05001,0.5609 l 0.22995,-0.6883 c -1.60202,-0.0239 -3.04571,-0.2272 -4.0824,-0.53607 -0.33518,-0.0999 -0.62134,-0.21133 -0.86096,-0.3266 z" /><path
       style="fill:none;stroke:#000000;stroke-width:0.661458;stroke-linecap:round;stroke-linejoin:round;stroke-dasharray:none;stroke-opacity:1"
       d="m 143.35456,135.32611 c 0,0 1.6789,0.72794 3.17109,0.61218"
       id="path117"
       sodipodi:nodetypes="cc" /><ellipse
       style="fill:#808080;fill-opacity:1;fill-rule:evenodd;stroke:#000000;stroke-width:0.661459;stroke-linecap:round;stroke-linejoin:round;stroke-dasharray:none;stroke-opacity:1"
       id="path116"
       cx="143.3567"
       cy="135.25731"
       rx="0.42094952"
       ry="0.47598991" /></g></svg>
