<?xml version="1.0" encoding="UTF-8" standalone="no"?>
<!-- Created with Inkscape (http://www.inkscape.org/) -->

<svg
   width="16.933332mm"
   height="16.933332mm"
   viewBox="0 0 16.933333 16.933332"
   version="1.1"
   id="svg1"
   inkscape:version="1.3.2 (091e20e, 2023-11-25, custom)"
   sodipodi:docname="ICONS.svg"
   xml:space="preserve"
   inkscape:export-filename="arrow_down.svg"
   inkscape:export-xdpi="96"
   inkscape:export-ydpi="96"
   xmlns:inkscape="http://www.inkscape.org/namespaces/inkscape"
   xmlns:sodipodi="http://sodipodi.sourceforge.net/DTD/sodipodi-0.dtd"
   xmlns="http://www.w3.org/2000/svg"
   xmlns:svg="http://www.w3.org/2000/svg"><sodipodi:namedview
     id="namedview1"
     pagecolor="#ffffff"
     bordercolor="#000000"
     borderopacity="0.25"
     inkscape:showpageshadow="false"
     inkscape:pageopacity="0.0"
     inkscape:pagecheckerboard="false"
     inkscape:deskcolor="#d1d1d1"
     inkscape:document-units="px"
     borderlayer="true"
     labelstyle="default"
     shape-rendering="crispEdges"
     inkscape:clip-to-page="false"
     inkscape:zoom="5.1000917"
     inkscape:cx="904.49354"
     inkscape:cy="195.48668"
     inkscape:window-width="1920"
     inkscape:window-height="1017"
     inkscape:window-x="-8"
     inkscape:window-y="-8"
     inkscape:window-maximized="1"
     inkscape:current-layer="layer1"
     showguides="true" /><defs
     id="defs1" /><g
     inkscape:label="Слой 1"
     inkscape:groupmode="layer"
     id="layer1"
     transform="translate(-246.29328,-43.152537)"><g
       id="g144"
       transform="matrix(0.99998672,0,0,0.99998672,0.00333984,-1.7116121)"
       style="stroke-width:1.00001"><g
         id="g142"
         transform="matrix(0.53100349,1.1552065,-1.1526346,0.53218833,174.08862,-264.24117)"
         style="fill:#a2a2a2;fill-opacity:1;stroke-width:0.416514;stroke-dasharray:none"><path
           id="path110-1-5"
           style="fill:#a2a2a2;fill-opacity:1;stroke:#000000;stroke-width:0.416514;stroke-linecap:round;stroke-linejoin:round;stroke-dasharray:none;stroke-opacity:1;paint-order:normal"
           d="m 248.59113,50.707747 0.007,0.945742 1.37044,2.9e-5 6.7e-4,-0.945785 z"
           sodipodi:nodetypes="ccccc" /><path
           id="path139"
           style="fill:#a2a2a2;fill-opacity:1;stroke:#000000;stroke-width:0.416514;stroke-linecap:round;stroke-linejoin:round;stroke-dasharray:none;stroke-opacity:1;paint-order:normal"
           d="m 248.88235,50.008185 0.006,0.69955 0.78368,1.1e-5 5.5e-4,-0.699566 z"
           sodipodi:nodetypes="ccccc" /><path
           id="path140"
           style="fill:#a2a2a2;fill-opacity:1;stroke:#000000;stroke-width:0.416514;stroke-linecap:round;stroke-linejoin:round;stroke-dasharray:none;stroke-opacity:1;paint-order:normal"
           d="m 248.5354,47.817696 0.008,2.190457 1.46565,6.6e-5 7.2e-4,-2.190556 z"
           sodipodi:nodetypes="ccccc" /></g><g
         id="g141"
         transform="matrix(1.1912624,-0.438498,0.43752174,1.1939205,-68.247787,103.56782)"
         style="fill:#a2a2a2;fill-opacity:1;stroke-width:0.416514;stroke-dasharray:none"><path
           id="path140-4"
           style="fill:#a2a2a2;fill-opacity:1;stroke:#000000;stroke-width:0.416514;stroke-linecap:round;stroke-linejoin:round;stroke-dasharray:none;stroke-opacity:1;paint-order:normal"
           d="m 252.91708,54.628157 2.19046,-0.008 6e-5,-1.465649 -2.19055,-7.21e-4 z"
           sodipodi:nodetypes="ccccc" /><path
           id="path139-7"
           style="fill:#a2a2a2;fill-opacity:1;stroke:#000000;stroke-width:0.416514;stroke-linecap:round;stroke-linejoin:round;stroke-dasharray:none;stroke-opacity:1;paint-order:normal"
           d="m 255.4653,53.498383 -0.35773,-5.17e-4 v 0.389467 0.400666 l 0.35785,-0.0058 c 0.46589,0 0.72336,0.287849 0.78349,0.783506 l 0.006,0.34405 h 0.78342 l 5.2e-4,-0.34405 c 0,-0.794864 -0.57237,-1.567322 -1.57355,-1.567322 z"
           sodipodi:nodetypes="cccccccccc" /><path
           id="path110-1-5-0"
           style="fill:#a2a2a2;fill-opacity:1;stroke:#000000;stroke-width:0.416514;stroke-linecap:round;stroke-linejoin:round;stroke-dasharray:none;stroke-opacity:1;paint-order:normal"
           d="m 255.95757,55.409762 0.007,0.945742 1.37043,2.9e-5 6.7e-4,-0.945785 z"
           sodipodi:nodetypes="ccccc" /></g><path
         style="color:#000000;fill:#474747;fill-opacity:1;stroke:#000000;stroke-width:0.529173;stroke-linecap:round;stroke-linejoin:round;stroke-dasharray:none;stroke-opacity:1"
         d="m 252.96168,48.068902 c -0.66069,0.05102 -1.31312,0.211378 -1.90856,0.489382 l 0.56761,1.219732 c 0.85015,-0.396922 2.01897,-0.47675 2.97438,-0.238481 0.95539,0.238267 1.62056,0.74685 1.79701,1.386171 0.0442,0.159968 0.0308,0.243092 -0.0273,0.370142 -0.0581,0.12705 -0.18671,0.293878 -0.39659,0.471994 -0.41977,0.356232 -1.12855,0.732467 -1.86641,1.112911 -0.73788,0.380444 -1.50499,0.763527 -2.10438,1.281835 -0.29969,0.259154 -0.56501,0.559296 -0.72624,0.943988 -0.16125,0.384692 -0.18833,0.853645 -0.0447,1.289288 0.34221,1.03741 1.3191,1.608153 2.34728,1.743893 1.02817,0.135738 2.17966,-0.0704 3.29164,-0.506773 l -0.4883,-1.254509 c -0.94384,0.370393 -1.9176,0.520981 -2.62736,0.427278 -0.70975,-0.0937 -1.08399,-0.338752 -1.24676,-0.832199 -0.0524,-0.158963 -0.0434,-0.23 0.005,-0.345301 0.0483,-0.115298 0.16611,-0.273573 0.36683,-0.447151 0.40146,-0.347159 1.10195,-0.722874 1.83916,-1.102976 0.7372,-0.3801 1.51108,-0.766099 2.12172,-1.284319 0.30532,-0.259111 0.5774,-0.556852 0.75103,-0.936536 0.17364,-0.379682 0.22158,-0.845662 0.0991,-1.289287 -0.3493,-1.2656 -1.51188,-2.022321 -2.76616,-2.335127 -0.62715,-0.156403 -1.29745,-0.214969 -1.95814,-0.163955 z"
         id="path142" /></g></g></svg>
