<?xml version="1.0" encoding="UTF-8" standalone="no"?>
<!-- Created with Inkscape (http://www.inkscape.org/) -->

<svg
   width="16.933327mm"
   height="16.933327mm"
   viewBox="0 0 16.933327 16.933328"
   version="1.1"
   id="svg1"
   inkscape:version="1.3.2 (091e20e, 2023-11-25, custom)"
   sodipodi:docname="temp.svg"
   xmlns:inkscape="http://www.inkscape.org/namespaces/inkscape"
   xmlns:sodipodi="http://sodipodi.sourceforge.net/DTD/sodipodi-0.dtd"
   xmlns="http://www.w3.org/2000/svg"
   xmlns:svg="http://www.w3.org/2000/svg">
  <sodipodi:namedview
     id="namedview1"
     pagecolor="#ffffff"
     bordercolor="#000000"
     borderopacity="0.25"
     inkscape:showpageshadow="false"
     inkscape:pageopacity="0.0"
     inkscape:pagecheckerboard="false"
     inkscape:deskcolor="#d1d1d1"
     inkscape:document-units="px"
     borderlayer="true"
     labelstyle="default"
     shape-rendering="crispEdges"
     inkscape:clip-to-page="false"
     inkscape:zoom="8.1437115"
     inkscape:cx="32.049269"
     inkscape:cy="44.083094"
     inkscape:window-width="1920"
     inkscape:window-height="1017"
     inkscape:window-x="-8"
     inkscape:window-y="-8"
     inkscape:window-maximized="1"
     inkscape:current-layer="layer1" />
  <defs
     id="defs1" />
  <g
     inkscape:label="Слой 1"
     inkscape:groupmode="layer"
     id="layer1"
     transform="translate(-167.21666,-183.09168)">
    <path
       id="rect24-6-8-0"
       style="fill:#ffffff;fill-opacity:1;fill-rule:evenodd;stroke:#000000;stroke-width:0.661457;stroke-linecap:round;stroke-linejoin:round"
       d="m 167.54739,183.42241 h 16.27187 v 16.27187 h -16.27187 z"
       sodipodi:nodetypes="ccccc" />
    <path
       style="fill:none;fill-opacity:1;stroke:#000000;stroke-width:0.661457;stroke-linecap:round;stroke-linejoin:round;stroke-dasharray:none;stroke-dashoffset:0;stroke-opacity:1"
       d="m 176.68337,199.69428 v -3.76662 h 7.13589"
       id="path24-7-89-9"
       sodipodi:nodetypes="ccc" />
    <path
       style="font-weight:bold;font-size:4.31487px;line-height:0;font-family:'Liberation Mono';-inkscape-font-specification:'Liberation Mono';letter-spacing:-0.404517px;fill:#3a00e4;stroke-width:26.4583;stroke-dasharray:58.2084, 26.4583"
       d="m 173.99873,193.76888 -0.61099,-1.08504 h -0.36449 v 1.08504 h -0.62153 v -2.84217 h 1.0408 q 0.55621,0 0.83221,0.21701 0.276,0.217 0.276,0.62574 0,0.28864 -0.15591,0.4909 -0.15591,0.20226 -0.43191,0.28442 l 0.7353,1.2241 z m -0.0737,-1.97414 q 0,-0.19805 -0.13062,-0.29075 -0.13063,-0.0948 -0.41717,-0.0948 h -0.35395 v 0.79218 h 0.37081 q 0.53093,0 0.53093,-0.40662 z m 1.29784,2.01627 q -0.33078,0 -0.51619,-0.17908 -0.1854,-0.18119 -0.1854,-0.50776 0,-0.35395 0.21911,-0.53725 0.22122,-0.1854 0.65945,-0.19172 l 0.46983,-0.008 v -0.11588 q 0,-0.21701 -0.0737,-0.32867 -0.0737,-0.11167 -0.23807,-0.11167 -0.1538,0 -0.22754,0.078 -0.0716,0.0759 -0.0885,0.2444 l -0.61732,-0.0295 q 0.11378,-0.67631 0.95863,-0.67631 0.42559,0 0.65102,0.20858 0.22754,0.20858 0.22754,0.6131 v 0.8259 q 0,0.19172 0.0421,0.26546 0.0442,0.0716 0.14538,0.0716 0.0674,0 0.13062,-0.0127 v 0.32025 q -0.0527,0.0126 -0.0948,0.0232 -0.0421,0.0105 -0.0843,0.0169 -0.0421,0.006 -0.0906,0.0105 -0.0463,0.004 -0.10955,0.004 -0.22333,0 -0.33078,-0.10956 -0.10535,-0.10956 -0.12642,-0.32235 h -0.0126 q -0.13273,0.23808 -0.30339,0.34342 -0.16855,0.10534 -0.40451,0.10534 z m 0.6468,-1.09768 -0.28232,0.004 q -0.18961,0.004 -0.276,0.04 -0.0843,0.0337 -0.12852,0.11166 -0.0442,0.0759 -0.0442,0.20858 0,0.32025 0.25282,0.32025 0.20437,0 0.34132,-0.16013 0.13694,-0.16223 0.13694,-0.40873 z"
       id="text1-0-5-6"
       transform="scale(1.0299437,0.97092687)"
       aria-label="Ra" />
    <path
       style="fill:none;fill-opacity:1;stroke:#3a00e4;stroke-width:0.66146;stroke-linecap:round;stroke-linejoin:round;stroke-dasharray:none;stroke-opacity:1"
       d="m 173.63142,185.89622 1.41187,2.30529 1.41186,-2.30529 0.69111,-1.12846 h 5.31704"
       id="path20"
       sodipodi:nodetypes="ccccc" />
    <rect
       style="fill:#3a00e4;fill-opacity:1;fill-rule:evenodd;stroke-width:0.264583"
       id="rect21-4"
       width="5.3247395"
       height="2.6127603"
       x="177.30389"
       y="192.3521"
       ry="0.66145831" />
  </g>
</svg>
