<?xml version="1.0" encoding="UTF-8" standalone="no"?>
<!-- Created with Inkscape (http://www.inkscape.org/) -->

<svg
   width="4.2333331mm"
   height="4.2333336mm"
   viewBox="0 0 4.2333332 4.2333336"
   version="1.1"
   id="svg1"
   inkscape:version="1.4.2 (f4327f4, 2025-05-13)"
   sodipodi:docname="ICONS.svg"
   xml:space="preserve"
   inkscape:export-filename="macros\weld_lines.svg"
   inkscape:export-xdpi="96"
   inkscape:export-ydpi="96"
   xmlns:inkscape="http://www.inkscape.org/namespaces/inkscape"
   xmlns:sodipodi="http://sodipodi.sourceforge.net/DTD/sodipodi-0.dtd"
   xmlns="http://www.w3.org/2000/svg"
   xmlns:svg="http://www.w3.org/2000/svg"><sodipodi:namedview
     id="namedview1"
     pagecolor="#ffffff"
     bordercolor="#000000"
     borderopacity="0.25"
     inkscape:showpageshadow="false"
     inkscape:pageopacity="0.0"
     inkscape:pagecheckerboard="false"
     inkscape:deskcolor="#d1d1d1"
     inkscape:document-units="px"
     borderlayer="true"
     labelstyle="default"
     shape-rendering="crispEdges"
     inkscape:clip-to-page="false"
     inkscape:zoom="8"
     inkscape:cx="47.625"
     inkscape:cy="19"
     inkscape:window-width="1920"
     inkscape:window-height="1017"
     inkscape:window-x="-8"
     inkscape:window-y="-8"
     inkscape:window-maximized="1"
     inkscape:current-layer="layer1"
     showguides="true"
     showgrid="false"><inkscape:page
       x="0"
       y="0"
       width="4.2333331"
       height="4.2333336"
       id="page2"
       margin="0"
       bleed="0" /></sodipodi:namedview><defs
     id="defs1" /><g
     inkscape:label="Слой 1"
     inkscape:groupmode="layer"
     id="layer1"
     transform="translate(-29.0425,-2.447913)"><circle
       style="fill:#437af0;fill-opacity:1;fill-rule:evenodd;stroke:#2635be;stroke-width:0.264583;stroke-opacity:1"
       id="circle1"
       cx="31.159168"
       cy="4.5645795"
       r="1.9843751"
       inkscape:export-filename="delete.svg"
       inkscape:export-xdpi="96"
       inkscape:export-ydpi="96" /><path
       style="font-weight:bold;font-size:3.37504px;line-height:1.25;font-family:'Liberation Mono';-inkscape-font-specification:'Liberation Mono';fill:#ffffff;fill-opacity:1;stroke-width:0.264584"
       d="m 32.015281,4.0159227 c 0,0.071412 -0.01263,0.1367814 -0.0379,0.1961083 -0.02417,0.059327 -0.05988,0.1153576 -0.107118,0.1680928 -0.04614,0.051636 -0.152709,0.1378797 -0.319706,0.2587311 -0.14612,0.10547 -0.221926,0.2164332 -0.227419,0.3328897 H 30.88313 c 0.0066,-0.1131605 0.03901,-0.214236 0.09723,-0.3032263 0.05823,-0.090089 0.140625,-0.171938 0.247195,-0.2455473 0.124147,-0.084596 0.208743,-0.1538104 0.253788,-0.2076441 0.04505,-0.054932 0.06757,-0.1148082 0.06757,-0.1796286 0,-0.084596 -0.03351,-0.1521624 -0.100526,-0.2027001 -0.06702,-0.051637 -0.154909,-0.077455 -0.263675,-0.077455 -0.110963,0 -0.204348,0.03241 -0.280155,0.09723 -0.07471,0.06482 -0.118653,0.1505144 -0.131837,0.2570831 l -0.469671,-0.019776 c 0.02966,-0.2230251 0.121397,-0.3966112 0.275211,-0.5207581 0.15381,-0.124147 0.353763,-0.1862205 0.59986,-0.1862205 0.254886,0 0.458136,0.05713 0.609749,0.1713888 0.151613,0.1142591 0.227419,0.2680695 0.227419,0.4614312 z M 30.869943,5.7460573 V 5.3011058 h 0.476263 v 0.4449515 z"
       id="text144"
       aria-label="?"
       sodipodi:nodetypes="cccccccccscscccsssccccccc" /></g></svg>
