<?xml version="1.0" encoding="UTF-8" standalone="no"?>
<!-- Created with Inkscape (http://www.inkscape.org/) -->

<svg
   width="16.933334mm"
   height="16.933334mm"
   viewBox="0 0 16.933335 16.933335"
   version="1.1"
   id="svg1"
   inkscape:version="1.3 (0e150ed6c4, 2023-07-21)"
   sodipodi:docname="settings.svg"
   xmlns:inkscape="http://www.inkscape.org/namespaces/inkscape"
   xmlns:sodipodi="http://sodipodi.sourceforge.net/DTD/sodipodi-0.dtd"
   xmlns="http://www.w3.org/2000/svg"
   xmlns:svg="http://www.w3.org/2000/svg">
  <sodipodi:namedview
     id="namedview1"
     pagecolor="#ffffff"
     bordercolor="#000000"
     borderopacity="0.25"
     inkscape:showpageshadow="false"
     inkscape:pageopacity="0.0"
     inkscape:pagecheckerboard="false"
     inkscape:deskcolor="#d1d1d1"
     inkscape:document-units="px"
     borderlayer="true"
     labelstyle="default"
     shape-rendering="crispEdges"
     inkscape:clip-to-page="false"
     inkscape:zoom="8.1437115"
     inkscape:cx="-0.67536774"
     inkscape:cy="16.208826"
     inkscape:window-width="1920"
     inkscape:window-height="1017"
     inkscape:window-x="-8"
     inkscape:window-y="-8"
     inkscape:window-maximized="1"
     inkscape:current-layer="layer1" />
  <defs
     id="defs1" />
  <g
     inkscape:label="Слой 1"
     inkscape:groupmode="layer"
     id="layer1"
     transform="translate(-159.54373,-178.32918)">
    <path
       id="SvgjsPath1172"
       style="fill:#808080;fill-opacity:1;stroke:#000000;stroke-width:0.661459;stroke-linecap:round;stroke-linejoin:round;stroke-dasharray:none;stroke-opacity:1"
       d="m 167.26379,179.24793 -0.0835,0.10757 -0.0768,0.10722 -0.0675,0.10372 -0.0587,0.0984 -0.0494,0.0921 -0.0412,0.0847 -0.0341,0.0791 -0.027,0.0703 -0.021,0.0626 -0.027,0.0988 -0.0117,0.0647 -0.003,0.0278 -0.002,0.0594 -0.009,0.0756 -0.0146,0.065 -0.0196,0.0545 -0.0235,0.0439 -0.0128,0.0175 -0.0139,0.0148 -0.0139,0.0123 -0.0146,0.009 -0.0149,0.006 -0.0263,0.004 -0.24349,0.005 -0.24242,0.0165 -0.0267,-0.002 -0.0156,-0.005 -0.0153,-0.008 -0.0149,-0.0109 -0.0149,-0.0137 -0.0146,-0.0162 -0.0274,-0.0415 -0.0245,-0.0524 -0.0206,-0.0636 -0.016,-0.0745 -0.008,-0.059 -0.005,-0.0274 -0.0178,-0.0629 -0.0359,-0.0963 -0.0267,-0.0601 -0.0334,-0.0678 -0.0416,-0.0752 -0.0487,-0.0809 -0.0579,-0.0872 -0.0675,-0.0928 -0.0771,-0.097 -0.0864,-0.0998 -0.0935,-0.0991 a 6.5344652,6.4628855 0 0 0 -0.45106,0.10476 l -0.0388,0.13008 -0.0323,0.12762 -0.0252,0.12093 -0.0185,0.11284 -0.0124,0.10336 -0.007,0.0939 -0.003,0.0858 6.9e-4,0.0752 0.003,0.0657 0.011,0.10195 0.0128,0.0644 0.007,0.0267 0.0196,0.0566 0.0192,0.0735 0.01,0.0661 0.002,0.0576 -0.006,0.0493 -0.005,0.0211 -0.007,0.019 -0.008,0.0162 -0.0103,0.0137 -0.0114,0.0112 -0.0231,0.0137 -0.22465,0.0918 -0.22038,0.10265 -0.0256,0.008 -0.016,3.6e-4 -0.0174,-0.002 -0.0178,-0.005 -0.0188,-0.007 -0.0199,-0.01 -0.0405,-0.0289 -0.0419,-0.0404 -0.0426,-0.0517 -0.042,-0.0636 -0.0291,-0.0524 -0.0149,-0.0235 -0.0398,-0.0524 -0.0686,-0.0766 -0.0469,-0.0467 -0.0558,-0.051 -0.0661,-0.0559 -0.075,-0.0576 -0.086,-0.0605 -0.0967,-0.0626 -0.10734,-0.0633 -0.11695,-0.0623 -0.12334,-0.0594 a 6.5344652,6.4628855 0 0 0 -0.38246,0.2591 l 0.0114,0.13534 0.0167,0.13043 0.0206,0.12164 0.0238,0.1118 0.026,0.10125 0.0274,0.09 0.0284,0.0812 0.0281,0.07 0.027,0.0601 0.0476,0.091 0.0352,0.0555 0.0171,0.0222 0.0384,0.0461 0.0448,0.0618 0.0334,0.0576 0.0228,0.0535 0.0124,0.0478 0.003,0.0218 3.5e-4,0.02 -0.002,0.0183 -0.005,0.0165 -0.006,0.0144 -0.0167,0.0211 -0.17595,0.16593 -0.16777,0.17402 -0.0213,0.0165 -0.0146,0.007 -0.0167,0.004 -0.0185,0.002 -0.0206,-3.5e-4 -0.0217,-0.003 -0.0483,-0.0123 -0.054,-0.0229 -0.0587,-0.0331 -0.0622,-0.0443 -0.0466,-0.038 -0.0228,-0.0169 -0.0562,-0.0348 -0.0917,-0.0471 -0.0608,-0.0267 -0.0711,-0.0274 -0.0817,-0.0281 -0.091,-0.0271 -0.10237,-0.026 -0.11303,-0.0235 -0.12334,-0.0204 -0.13152,-0.0162 -0.13685,-0.0116 a 6.5344652,6.4628855 0 0 0 -0.26197,0.37827 l 0.0601,0.12199 0.0629,0.11566 0.064,0.10618 0.0629,0.0956 0.0615,0.0851 0.0583,0.0742 0.0562,0.0654 0.0519,0.0552 0.0469,0.0464 0.0775,0.0678 0.0533,0.0394 0.0238,0.0148 0.053,0.0289 0.064,0.0415 0.0526,0.0422 0.0409,0.0415 0.0291,0.0401 0.01,0.0197 0.007,0.0186 0.005,0.018 0.002,0.0169 -0.001,0.0159 -0.007,0.0253 -0.10379,0.21797 -0.0928,0.22218 -0.0139,0.0229 -0.0114,0.0112 -0.0139,0.0102 -0.0167,0.009 -0.0188,0.007 -0.0213,0.005 -0.0498,0.006 -0.0583,-0.002 -0.0668,-0.0102 -0.0743,-0.019 -0.0572,-0.019 -0.027,-0.007 -0.0651,-0.0127 -0.10308,-0.0109 -0.0665,-0.003 -0.0761,-3.5e-4 -0.0867,0.003 -0.0949,0.007 -0.10485,0.0127 -0.11375,0.0183 -0.12227,0.025 -0.12903,0.032 -0.13152,0.0383 a 6.5344652,6.4628855 0 0 0 -0.10628,0.44613 l 0.10059,0.0925 0.10095,0.0854 0.0981,0.0759 0.0938,0.0668 0.0882,0.0573 0.0814,0.0485 0.0764,0.0408 0.0683,0.0334 0.0611,0.0264 0.097,0.0355 0.064,0.0175 0.0277,0.005 0.0597,0.008 0.075,0.0158 0.0643,0.0204 0.0533,0.0239 0.0416,0.0274 0.0167,0.0144 0.0139,0.0144 0.011,0.0148 0.008,0.0154 0.005,0.0151 0.002,0.0264 -0.0171,0.24011 -0.006,0.24082 -0.004,0.026 -0.006,0.0148 -0.01,0.0141 -0.0121,0.0141 -0.0153,0.0133 -0.0178,0.013 -0.0441,0.0232 -0.0551,0.019 -0.0661,0.0148 -0.0761,0.009 -0.0604,0.003 -0.0281,0.003 -0.065,0.012 -0.10024,0.0263 -0.0629,0.0207 -0.0714,0.0267 -0.0796,0.0337 -0.0857,0.0407 -0.0931,0.0489 -0.0999,0.058 -0.10485,0.0668 -0.10842,0.0759 -0.10876,0.0826 a 6.5344652,6.4628855 0 0 0 0.064,0.45421 l 0.1276,0.0499 0.12512,0.0436 0.11943,0.0358 0.11197,0.0288 0.10308,0.0218 0.0938,0.0162 0.086,0.0109 0.0761,0.006 0.0661,0.003 0.10379,-10e-4 0.0658,-0.006 0.0281,-0.005 0.0587,-0.0141 0.0757,-0.012 0.0675,-0.004 0.0583,0.003 0.0487,0.0102 0.021,0.008 0.0185,0.008 0.0156,0.01 0.0131,0.0112 0.0107,0.0123 0.0114,0.0239 0.0718,0.22957 0.0828,0.2264 0.005,0.026 -6.9e-4,0.0162 -0.004,0.0165 -0.006,0.0172 -0.009,0.018 -0.0121,0.0183 -0.0327,0.0376 -0.0444,0.0376 -0.0562,0.0369 -0.0679,0.0359 -0.0555,0.0235 -0.0252,0.0127 -0.0565,0.0344 -0.0835,0.0601 -0.0512,0.0422 -0.0565,0.0503 -0.0622,0.0601 -0.0651,0.0686 -0.069,0.0791 -0.0718,0.0893 -0.0732,0.10019 -0.0736,0.10934 -0.0711,0.11601 a 6.5344652,6.4628855 0 0 0 0.22536,0.40042 l 0.1372,0.001 0.13258,-0.004 0.12477,-0.009 0.11481,-0.013 0.10415,-0.0165 0.0931,-0.0186 0.0842,-0.0207 0.0732,-0.0211 0.0629,-0.0208 0.096,-0.0386 0.059,-0.0295 0.0242,-0.0144 0.0498,-0.0341 0.0661,-0.0383 0.0615,-0.0278 0.0558,-0.0172 0.0494,-0.008 0.022,-3.5e-4 0.0203,0.002 0.0181,0.004 0.0163,0.006 0.0139,0.008 0.0196,0.018 0.15071,0.18879 0.15995,0.1814 0.0146,0.0222 0.005,0.0151 0.003,0.0169 3.6e-4,0.0186 -0.002,0.0201 -0.004,0.0211 -0.0171,0.0467 -0.0277,0.051 -0.0387,0.0545 -0.0501,0.0573 -0.043,0.0422 -0.0188,0.0208 -0.0402,0.052 -0.0562,0.0861 -0.0324,0.0576 -0.0345,0.0672 -0.0359,0.078 -0.0356,0.0872 -0.0356,0.0984 -0.0341,0.10898 -0.032,0.11953 -0.0284,0.12832 -0.0242,0.13359 a 6.5344652,6.4628855 0 0 0 0.35651,0.29249 l 0.12868,-0.0478 0.12192,-0.0513 0.11303,-0.0527 0.10201,-0.0535 0.0914,-0.0527 0.08,-0.0506 0.0711,-0.0492 0.0604,-0.0457 0.0512,-0.0422 0.0754,-0.0703 0.0444,-0.0485 0.0171,-0.0225 0.0338,-0.0493 0.048,-0.0594 0.0469,-0.0478 0.0459,-0.0362 0.043,-0.025 0.0203,-0.008 0.0196,-0.005 0.0185,-0.003 0.0174,-3.5e-4 0.016,0.002 0.0245,0.01 0.20972,0.12199 0.2154,0.11215 0.0217,0.0154 0.0103,0.0123 0.009,0.0148 0.007,0.0169 0.005,0.0193 0.004,0.0214 0.001,0.0496 -0.007,0.0573 -0.016,0.065 -0.026,0.0714 -0.0249,0.0545 -0.01,0.026 -0.0185,0.0629 -0.0206,0.10055 -0.009,0.065 -0.007,0.0749 -0.005,0.0858 -0.001,0.0939 0.003,0.10441 0.008,0.11426 0.0139,0.12269 0.0203,0.12973 0.0263,0.13324 a 6.5344652,6.4628855 0 0 0 0.43934,0.14554 l 0.10237,-0.0907 0.0953,-0.0914 0.0857,-0.0896 0.0761,-0.0861 0.0658,-0.0816 0.0562,-0.0759 0.0483,-0.0714 0.0395,-0.0643 0.0324,-0.0573 0.0448,-0.0925 0.0235,-0.0615 0.008,-0.0267 0.0135,-0.058 0.0231,-0.0728 0.0263,-0.0612 0.0295,-0.0503 0.0309,-0.0383 0.016,-0.0151 0.0163,-0.0123 0.016,-0.009 0.016,-0.007 0.016,-0.003 0.0267,3.5e-4 0.23993,0.0391 0.2417,0.0274 0.0259,0.007 0.0139,0.008 0.0135,0.0105 0.0131,0.0133 0.0121,0.0162 0.0114,0.0186 0.0192,0.0457 0.0142,0.0559 0.008,0.0665 0.002,0.0759 -0.003,0.0594 v 0.0281 l 0.006,0.065 0.0174,0.10124 0.0153,0.064 0.0203,0.0724 0.0267,0.0819 0.0331,0.0879 0.0409,0.0963 0.049,0.10371 0.0576,0.10934 0.0665,0.1139 0.0732,0.1146 a 6.5344652,6.4628855 0 0 0 0.4628,-0.0211 l 0.0622,-0.12093 0.0554,-0.11918 0.0473,-0.11426 0.0391,-0.10757 0.0316,-0.0999 0.0249,-0.0907 0.0188,-0.0837 0.0135,-0.0742 0.009,-0.065 0.008,-0.10231 -3.6e-4,-0.0654 -0.002,-0.0281 -0.008,-0.059 -0.005,-0.0756 0.002,-0.0668 0.009,-0.0573 0.0149,-0.0471 0.009,-0.0197 0.0107,-0.0172 0.0117,-0.0144 0.0124,-0.0116 0.0135,-0.009 0.0249,-0.009 0.23815,-0.0496 0.23567,-0.0605 0.0263,-0.003 0.016,0.002 0.0167,0.005 0.0167,0.008 0.0174,0.0105 0.0174,0.0133 0.0348,0.0355 0.0338,0.0471 0.0323,0.0587 0.0295,0.0703 0.0188,0.0566 0.0103,0.026 0.0291,0.0587 0.0533,0.0879 0.0373,0.0545 0.0455,0.0605 0.0547,0.0665 0.0633,0.0703 0.0732,0.0752 0.0835,0.0787 0.0938,0.0816 0.10343,0.0826 0.11019,0.0805 a 6.5344652,6.4628855 0 0 0 0.4237,-0.18492 l 0.0142,-0.135 0.008,-0.13113 0.002,-0.12339 -0.003,-0.11426 -0.007,-0.10441 -0.0103,-0.0932 -0.0128,-0.0851 -0.0146,-0.0738 -0.0153,-0.064 -0.0299,-0.0981 -0.0245,-0.0612 -0.0121,-0.025 -0.0299,-0.052 -0.0324,-0.0689 -0.0224,-0.0629 -0.0124,-0.0566 -0.003,-0.0492 0.001,-0.0218 0.004,-0.0197 0.006,-0.0175 0.007,-0.0154 0.009,-0.0133 0.0199,-0.0176 0.20403,-0.13113 0.19727,-0.14062 0.0238,-0.0123 0.0156,-0.003 0.0174,-0.001 0.0185,0.001 0.0199,0.004 0.021,0.006 0.0455,0.0208 0.0487,0.032 0.0515,0.0433 0.0533,0.0545 0.038,0.0464 0.0192,0.0208 0.0487,0.0443 0.0814,0.0629 0.0551,0.0373 0.0643,0.0401 0.0754,0.0425 0.0842,0.0433 0.096,0.044 0.10664,0.0439 0.1173,0.0422 0.12654,0.0401 0.13223,0.0359 a 6.5344652,6.4628855 0 0 0 0.32772,-0.32413 l -0.0363,-0.13079 -0.0405,-0.12515 -0.043,-0.11566 -0.0441,-0.10582 -0.0444,-0.0946 -0.0437,-0.0833 -0.043,-0.0749 -0.0405,-0.0636 -0.0377,-0.0541 -0.0636,-0.0809 -0.0451,-0.0482 -0.021,-0.0187 -0.0466,-0.038 -0.0555,-0.0527 -0.0437,-0.0506 -0.0324,-0.0485 -0.021,-0.0446 -0.006,-0.0207 -0.004,-0.0197 -0.001,-0.0186 0.001,-0.0169 0.004,-0.0159 0.0121,-0.0232 0.14254,-0.19547 0.13258,-0.20144 0.0178,-0.0201 0.0131,-0.009 0.0156,-0.007 0.0178,-0.005 0.0199,-0.003 0.022,-0.001 0.0498,0.003 0.0572,0.0123 0.064,0.0222 0.0693,0.032 0.0526,0.0295 0.0256,0.012 0.0615,0.0243 0.0992,0.0295 0.0647,0.0151 0.0746,0.0144 0.086,0.0127 0.0945,0.0102 0.10521,0.007 0.11553,0.003 0.12476,-0.002 0.13258,-0.008 0.13507,-0.012 a 6.5344652,6.4628855 0 0 0 0.18697,-0.41941 l -0.0814,-0.10898 -0.0835,-0.1023 -0.0825,-0.0928 -0.0796,-0.0826 -0.0761,-0.0724 -0.0711,-0.0626 -0.0672,-0.0542 -0.0611,-0.0446 -0.0547,-0.0373 -0.0892,-0.0524 -0.0594,-0.0292 -0.0263,-0.0102 -0.0572,-0.0186 -0.0707,-0.0292 -0.0594,-0.032 -0.048,-0.0334 -0.0363,-0.0341 -0.0135,-0.0172 -0.0107,-0.0172 -0.008,-0.0165 -0.005,-0.0162 -0.002,-0.0159 0.003,-0.0264 0.0615,-0.23273 0.0501,-0.23554 0.009,-0.025 0.009,-0.0133 0.0121,-0.0123 0.0146,-0.0112 0.0171,-0.0105 0.0203,-0.01 0.0476,-0.0148 0.0579,-0.009 0.0672,-0.002 0.0768,0.005 0.0597,0.008 0.0281,0.002 0.0661,3.5e-4 0.10344,-0.008 0.0658,-0.009 0.075,-0.0133 0.0846,-0.0186 0.0917,-0.0243 0.10094,-0.0313 0.10877,-0.0391 0.11552,-0.0467 0.1205,-0.0545 0.12228,-0.0615 a 6.5344652,6.4628855 0 0 0 0.0217,-0.45808 l -0.11623,-0.0724 -0.11517,-0.0654 -0.11055,-0.0573 -0.1045,-0.0485 -0.0974,-0.0404 -0.0892,-0.0327 -0.0825,-0.0264 -0.0736,-0.0201 -0.0647,-0.0148 -0.10201,-0.0172 -0.0661,-0.005 h -0.0281 l -0.0604,0.003 -0.0768,-0.002 -0.0668,-0.008 -0.0569,-0.0144 -0.0462,-0.019 -0.0188,-0.0109 -0.016,-0.0123 -0.0135,-0.0127 -0.0107,-0.0137 -0.008,-0.0141 -0.007,-0.0257 -0.0277,-0.23906 -0.0395,-0.23729 -3.6e-4,-0.0267 0.004,-0.0154 0.006,-0.0159 0.01,-0.0162 0.0121,-0.0159 0.0153,-0.0159 0.0391,-0.0309 0.0508,-0.0289 0.0618,-0.0264 0.0736,-0.0225 0.0587,-0.0133 0.027,-0.008 0.0622,-0.0232 0.0935,-0.0443 0.0579,-0.0316 0.0651,-0.0394 0.0722,-0.0478 0.0768,-0.0555 0.0825,-0.065 0.0871,-0.0752 0.0906,-0.0847 0.0928,-0.0942 0.0914,-0.10125 a 6.5344652,6.4628855 0 0 0 -0.14717,-0.43365 l -0.13472,-0.026 -0.13116,-0.02 -0.12405,-0.0137 -0.11552,-0.008 -0.10557,-0.003 -0.0949,0.001 -0.0867,0.005 -0.0757,0.007 -0.0658,0.01 -0.10166,0.0204 -0.0636,0.0183 -0.0263,0.01 -0.0551,0.0243 -0.0722,0.0256 -0.0658,0.0162 -0.0579,0.007 -0.0498,-0.001 -0.022,-0.003 -0.0196,-0.005 -0.0171,-0.007 -0.0149,-0.009 -0.0121,-0.0105 -0.016,-0.0214 -0.11339,-0.21269 -0.12334,-0.20742 -0.01,-0.0246 -0.002,-0.0159 3.5e-4,-0.0172 0.003,-0.0179 0.006,-0.0193 0.008,-0.0204 0.0252,-0.0425 0.0366,-0.045 0.0483,-0.0467 0.0601,-0.0471 0.0501,-0.0337 0.0224,-0.0169 0.049,-0.0439 0.0711,-0.0745 0.0427,-0.0503 0.0462,-0.0601 0.0498,-0.0703 0.0512,-0.0791 0.0533,-0.09 0.054,-0.10125 0.0533,-0.11144 0.0519,-0.12093 0.0483,-0.12692 a 6.5344652,6.4628855 0 0 0 -0.29573,-0.35261 l -0.13543,0.0235 -0.12938,0.0282 -0.12085,0.0316 -0.11019,0.0337 -0.0995,0.0352 -0.0882,0.0352 -0.0789,0.0355 -0.0679,0.0341 -0.0583,0.0323 -0.0871,0.0552 -0.0526,0.0397 -0.021,0.0186 -0.0427,0.0425 -0.0579,0.0496 -0.0551,0.0383 -0.0515,0.0274 -0.0469,0.0169 -0.0217,0.005 -0.0203,0.002 -0.0185,-3.5e-4 -0.0171,-0.003 -0.0156,-0.005 -0.022,-0.0144 -0.18377,-0.15785 -0.19052,-0.14941 -0.0185,-0.019 -0.008,-0.0141 -0.006,-0.0159 -0.004,-0.0183 -0.001,-0.0201 3.5e-4,-0.0218 0.008,-0.0489 0.0178,-0.0552 0.0281,-0.0605 0.0387,-0.0657 0.0345,-0.0493 0.0146,-0.0235 0.0299,-0.0587 0.0391,-0.0949 0.021,-0.0623 0.0213,-0.0724 0.021,-0.0833 0.0188,-0.0921 0.0163,-0.10301 0.0135,-0.11355 0.009,-0.1234 0.004,-0.13113 -0.001,-0.1357 a 6.5344652,6.4628855 0 0 0 -0.40454,-0.2261 l -0.1173,0.0703 -0.11054,0.0728 -0.10095,0.0724 -0.0906,0.071 -0.08,0.0682 -0.069,0.0644 -0.0608,0.0615 -0.0512,0.0559 -0.0423,0.0506 -0.0611,0.0826 -0.0345,0.0559 -0.0128,0.025 -0.0242,0.0548 -0.0359,0.0671 -0.0373,0.0555 -0.038,0.0439 -0.038,0.0324 -0.0185,0.012 -0.0181,0.009 -0.0174,0.006 -0.0171,0.003 -0.016,6.8e-4 -0.0263,-0.005 -0.22891,-0.0819 -0.23247,-0.071 -0.0242,-0.0112 -0.0121,-0.0105 -0.0114,-0.013 -0.01,-0.0154 -0.009,-0.0183 -0.007,-0.0204 -0.0103,-0.0485 -0.004,-0.0576 0.004,-0.0668 0.0121,-0.0749 0.0142,-0.058 0.005,-0.0274 0.006,-0.0654 0.001,-0.1023 -0.003,-0.0657 -0.006,-0.0749 -0.0114,-0.0854 -0.016,-0.0925 -0.022,-0.10195 -0.0291,-0.11074 -0.0363,-0.11813 -0.0441,-0.12375 -0.0508,-0.12621 a 6.5344652,6.4628855 0 0 0 -0.45888,-0.0633 z m -0.79337,4.75726 a 1.6941604,1.6756023 0 0 1 1.31872,0.48655 1.6941604,1.6756023 0 0 1 0,2.3695 1.6941604,1.6756023 0 0 1 -2.39573,0 1.6941604,1.6756023 0 0 1 0,-2.3695 1.6941604,1.6756023 0 0 1 1.07701,-0.48655 z" />
    <path
       id="SvgjsPath1167-1"
       style="fill:#808080;fill-opacity:1;stroke:#000000;stroke-width:0.661459;stroke-linecap:round;stroke-linejoin:round;stroke-dasharray:none;stroke-opacity:1"
       d="m 173.81403,188.48015 -0.0704,0.0408 -0.0746,0.0472 -0.0693,0.0482 -0.0629,0.0475 -0.0583,0.0482 -0.0519,0.0464 -0.0469,0.0461 -0.0419,0.0446 -0.0373,0.0433 -0.0597,0.0781 -0.0444,0.0696 -0.0291,0.0552 -0.0181,0.0429 0.004,0.0644 -3.6e-4,0.0693 -0.005,0.0644 -0.009,0.0601 -0.0135,0.0548 -0.0171,0.0496 -0.0206,0.0443 -0.0231,0.0386 -0.0252,0.0331 -0.0274,0.0271 -0.0291,0.0211 -0.0299,0.0151 -0.0302,0.01 -0.0341,0.003 -0.14751,-0.01 -0.069,-0.001 -0.0693,0.001 -0.14752,0.01 -0.0341,-0.003 -0.0302,-0.009 -0.0299,-0.0155 -0.0291,-0.0207 -0.0274,-0.0274 -0.0256,-0.0327 -0.0231,-0.0386 -0.0203,-0.0443 -0.0174,-0.0499 -0.0135,-0.0545 -0.009,-0.0601 -0.005,-0.0644 -3.6e-4,-0.0693 0.004,-0.0644 -0.0181,-0.0429 -0.0291,-0.0552 -0.0444,-0.0696 -0.0597,-0.078 -0.0373,-0.0429 -0.0423,-0.0446 -0.0469,-0.0461 -0.0519,-0.0464 -0.0583,-0.0482 -0.0629,-0.0475 -0.0693,-0.0482 -0.0746,-0.0471 -0.0704,-0.0408 a 3.4391922,3.4015187 0 0 0 -0.34372,0.14062 l -0.0206,0.0781 -0.0188,0.0858 -0.0149,0.0823 -0.0103,0.0777 -0.007,0.0745 -0.004,0.0696 -3.6e-4,0.065 0.002,0.0612 0.005,0.0566 0.0139,0.097 0.0181,0.0805 0.0192,0.059 0.0178,0.0429 0.049,0.0429 0.049,0.0489 0.0427,0.0492 0.0363,0.0489 0.0295,0.0482 0.0235,0.0471 0.0174,0.0457 0.0114,0.0433 0.005,0.0415 v 0.0383 l -0.005,0.0352 -0.0103,0.0316 -0.0149,0.0278 -0.022,0.026 -0.1109,0.0963 -0.0498,0.0475 -0.0483,0.0493 -0.097,0.11004 -0.0267,0.0214 -0.0281,0.0148 -0.032,0.0102 -0.0356,0.005 H 170.93 l -0.0416,-0.005 -0.0441,-0.0112 -0.0459,-0.0172 -0.0476,-0.0232 -0.0487,-0.0292 -0.0498,-0.0358 -0.0494,-0.0422 -0.0494,-0.0485 -0.0434,-0.0485 -0.0434,-0.0175 -0.0597,-0.0186 -0.0814,-0.0183 -0.0981,-0.0137 -0.0572,-0.004 -0.0618,-0.002 -0.0658,3.5e-4 -0.07,0.003 -0.0757,0.007 -0.0786,0.0102 -0.0832,0.0144 -0.0867,0.019 -0.0789,0.0204 a 3.4391922,3.4015187 0 0 0 -0.14218,0.33961 l 0.0412,0.07 0.0476,0.0735 0.0487,0.0689 0.0483,0.0622 0.0483,0.0576 0.0469,0.0514 0.0466,0.0464 0.0451,0.0415 0.0434,0.0373 0.0789,0.059 0.0707,0.044 0.0555,0.0284 0.0434,0.018 0.0654,-0.004 h 0.0697 l 0.0651,0.005 0.0608,0.009 0.0555,0.0137 0.0501,0.0169 0.0448,0.0201 0.0391,0.0229 0.0334,0.0253 0.0274,0.0271 0.0213,0.0288 0.0153,0.0295 0.009,0.0299 0.003,0.0337 -0.01,0.14589 -0.001,0.0686 0.001,0.0682 0.01,0.1459 -0.003,0.0337 -0.009,0.0302 -0.0153,0.0295 -0.0217,0.0285 -0.0274,0.0271 -0.0334,0.025 -0.0391,0.0229 -0.0448,0.0204 -0.0501,0.0169 -0.0555,0.0133 -0.0604,0.009 -0.0654,0.005 h -0.0697 l -0.0654,-0.004 -0.043,0.018 -0.0558,0.0285 -0.0704,0.0439 -0.0793,0.059 -0.0437,0.0369 -0.0451,0.0415 -0.0462,0.0467 -0.0473,0.0513 -0.0483,0.0573 -0.0483,0.0623 -0.0487,0.0686 -0.0476,0.0738 -0.0412,0.0696 a 3.4391922,3.4015187 0 0 0 0.14218,0.33996 l 0.0793,0.0204 0.0864,0.0186 0.0832,0.0144 0.0789,0.0105 0.0754,0.007 0.07,0.003 0.0661,3.4e-4 0.0615,-0.002 0.0572,-0.004 0.0981,-0.0137 0.0814,-0.0183 0.0597,-0.0186 0.0437,-0.0175 0.043,-0.0485 0.0494,-0.0485 0.0498,-0.0422 0.0494,-0.0359 0.0491,-0.0292 0.0476,-0.0232 0.0459,-0.0172 0.0441,-0.0109 0.0416,-0.005 h 0.0387 l 0.0356,0.005 0.032,0.01 0.0281,0.0148 0.0267,0.0214 0.0974,0.11004 0.048,0.0493 0.0498,0.0475 0.11126,0.0963 0.0217,0.0264 0.0149,0.0278 0.0103,0.0316 0.005,0.0352 v 0.0383 l -0.006,0.0412 -0.011,0.0436 -0.0174,0.0457 -0.0235,0.0471 -0.0295,0.0482 -0.0363,0.0488 -0.0426,0.0493 -0.049,0.0488 -0.0491,0.0429 -0.0178,0.0429 -0.0188,0.059 -0.0185,0.0805 -0.0139,0.097 -0.004,0.0566 -0.002,0.0612 6.9e-4,0.065 0.003,0.0693 0.007,0.0749 0.0107,0.0777 0.0146,0.0823 0.0188,0.0858 0.0206,0.0781 a 3.4391922,3.4015187 0 0 0 0.34372,0.14062 l 0.0704,-0.0408 0.0746,-0.0471 0.0693,-0.0482 0.0629,-0.0475 0.0583,-0.0482 0.0519,-0.0464 0.0469,-0.0461 0.0423,-0.0446 0.037,-0.0433 0.0597,-0.0784 0.0444,-0.0696 0.0291,-0.0548 0.0181,-0.0429 -0.004,-0.0647 3.5e-4,-0.0689 0.005,-0.0647 0.01,-0.0598 0.0135,-0.0548 0.0171,-0.0496 0.0203,-0.0443 0.0231,-0.0386 0.0256,-0.0331 0.0274,-0.0271 0.0288,-0.0211 0.0299,-0.0154 0.0302,-0.009 0.0345,-0.003 0.14716,0.01 0.0693,0.001 0.069,-0.001 0.14751,-0.01 0.0341,0.003 0.0306,0.009 0.0299,0.0151 0.0288,0.0211 0.0274,0.0271 0.0256,0.0331 0.0231,0.0386 0.0206,0.0443 0.0171,0.0496 0.0135,0.0548 0.009,0.0598 0.005,0.0647 v 0.0689 l -0.004,0.0647 0.0181,0.0429 0.0288,0.0548 0.0444,0.0696 0.0597,0.0784 0.0377,0.0429 0.0419,0.0446 0.0469,0.0461 0.0522,0.0464 0.0579,0.0478 0.0633,0.0478 0.0693,0.0482 0.0743,0.0472 0.0707,0.0407 a 3.4391922,3.4015187 0 0 0 0.34337,-0.14062 l 0.0206,-0.0784 0.0192,-0.0854 0.0146,-0.0823 0.0103,-0.0781 0.007,-0.0745 0.004,-0.0692 3.5e-4,-0.0654 -0.002,-0.0608 -0.005,-0.0566 -0.0139,-0.097 -0.0181,-0.0805 -0.0188,-0.059 -0.0181,-0.0429 -0.0487,-0.0429 -0.0494,-0.0489 -0.0427,-0.0488 -0.0363,-0.0492 -0.0295,-0.0482 -0.0235,-0.0471 -0.0171,-0.0454 -0.0114,-0.0436 -0.006,-0.0411 v -0.0383 l 0.005,-0.0352 0.01,-0.0316 0.0149,-0.0281 0.022,-0.026 0.11126,-0.0963 0.0498,-0.0475 0.048,-0.0493 0.097,-0.11003 0.0267,-0.0214 0.0281,-0.0148 0.032,-0.0102 0.0356,-0.005 h 0.0387 l 0.0416,0.005 0.0441,0.0112 0.0459,0.0172 0.0476,0.0232 0.049,0.0292 0.0494,0.0359 0.0494,0.0422 0.0494,0.0485 0.0434,0.0485 0.0434,0.0175 0.0601,0.0186 0.081,0.0183 0.0981,0.0137 0.0572,0.004 0.0618,0.002 0.0661,-3.5e-4 0.07,-0.003 0.0754,-0.007 0.0786,-0.0102 0.0835,-0.0144 0.0864,-0.019 0.0789,-0.0204 a 3.4391922,3.4015187 0 0 0 0.14218,-0.3396 l -0.0412,-0.07 -0.0476,-0.0735 -0.0487,-0.0689 -0.048,-0.0623 -0.0487,-0.0573 -0.0469,-0.0517 -0.0466,-0.0464 -0.0451,-0.0418 -0.0434,-0.0369 -0.0789,-0.059 -0.0704,-0.0439 -0.0558,-0.0285 -0.0434,-0.0183 -0.065,0.004 -0.07,-3.6e-4 -0.0651,-0.005 -0.0604,-0.009 -0.0555,-0.0133 -0.0505,-0.0169 -0.0448,-0.0201 -0.0391,-0.0229 -0.0331,-0.0253 -0.0277,-0.0271 -0.021,-0.0288 -0.0156,-0.0295 -0.009,-0.0299 -0.003,-0.0337 0.01,-0.1459 0.001,-0.0686 -0.001,-0.0682 -0.01,-0.1459 0.003,-0.0337 0.009,-0.0302 0.0153,-0.0295 0.0217,-0.0284 0.0274,-0.0271 0.0334,-0.025 0.0391,-0.0229 0.0448,-0.0204 0.0501,-0.0169 0.0555,-0.0133 0.0604,-0.009 0.0654,-0.005 h 0.0697 l 0.0654,0.004 0.0434,-0.018 0.0555,-0.0285 0.0704,-0.0439 0.0793,-0.059 0.0437,-0.0369 0.0451,-0.0415 0.0466,-0.0467 0.0469,-0.0514 0.0487,-0.0573 0.048,-0.0622 0.0487,-0.0686 0.0476,-0.0738 0.0412,-0.0696 a 3.4391922,3.4015187 0 0 0 -0.14218,-0.33996 l -0.0789,-0.0204 -0.0864,-0.0186 -0.0835,-0.0148 -0.0786,-0.0102 -0.0754,-0.007 -0.07,-0.003 -0.0661,-3.5e-4 -0.0618,0.002 -0.0572,0.004 -0.0981,0.0137 -0.0814,0.0183 -0.0597,0.0186 -0.0434,0.0175 -0.0434,0.0485 -0.0494,0.0485 -0.0498,0.0422 -0.0494,0.0359 -0.0487,0.0292 -0.0476,0.0232 -0.0462,0.0169 -0.0441,0.0112 -0.0416,0.005 h -0.0387 l -0.0356,-0.005 -0.032,-0.01 -0.0281,-0.0148 -0.0267,-0.0214 -0.0974,-0.11004 -0.0476,-0.0492 -0.0501,-0.0475 -0.1109,-0.0963 -0.022,-0.0264 -0.0149,-0.0278 -0.01,-0.0316 -0.005,-0.0352 v -0.0383 l 0.006,-0.0412 0.0114,-0.0436 0.0171,-0.0454 0.0235,-0.0471 0.0299,-0.0482 0.0359,-0.0493 0.0426,-0.0493 0.0491,-0.0488 0.049,-0.0429 0.0178,-0.0429 0.0192,-0.059 0.0181,-0.0805 0.0139,-0.097 0.005,-0.0566 0.002,-0.0612 -3.6e-4,-0.0654 -0.004,-0.0693 -0.007,-0.0745 -0.0103,-0.0777 -0.0149,-0.0826 -0.0188,-0.0854 -0.0206,-0.0781 a 3.4391922,3.4015187 0 0 0 -0.34372,-0.14062 z m -1.20463,2.36036 a 0.86092975,0.85149898 0 0 1 0.67038,0.24715 0.86092975,0.85149898 0 0 1 0,1.20407 0.86092975,0.85149898 0 0 1 -1.21777,0 0.86092975,0.85149898 0 0 1 0,-1.20407 0.86092975,0.85149898 0 0 1 0.54739,-0.24715 z" />
  </g>
</svg>
