<?xml version="1.0" encoding="UTF-8" standalone="no"?>
<!-- Created with Inkscape (http://www.inkscape.org/) -->

<svg
   width="16.93335mm"
   height="16.93335mm"
   viewBox="0 0 16.93335 16.93335"
   version="1.1"
   id="svg1"
   xml:space="preserve"
   xmlns="http://www.w3.org/2000/svg"
   xmlns:svg="http://www.w3.org/2000/svg"><defs
     id="defs1" /><g
     id="layer1"
     transform="translate(-149.20002,-147.61436)"><path
       style="fill:none;stroke:#515151;stroke-width:0.661458;stroke-linecap:round;stroke-linejoin:round;stroke-dasharray:none;stroke-opacity:1"
       d="m 156.08365,153.16534 -0.94746,0.13514 -1.30603,-0.28101 -1.01274,0.23701"
       id="path16-7-2-5" /><path
       style="fill:none;stroke:#515151;stroke-width:0.661458;stroke-linecap:round;stroke-linejoin:round;stroke-dasharray:none;stroke-opacity:1"
       d="m 152.925,157.41911 1.17159,-0.35142 0.85166,0.69784 0.99822,-0.3204 1.15687,0.0755"
       id="path16-7-29-7" /><path
       style="fill:#626262;fill-opacity:1;stroke:none;stroke-width:0.264583;stroke-linecap:round;stroke-dasharray:none;stroke-dashoffset:0;stroke-opacity:1"
       d="m 149.95636,158.81665 1.99984,-0.25159 v -2.01561 l -0.75632,-0.66606 -1.99985,0.25159 v 2.01561 z"
       id="path13-6-9-1-71-2-7-8" /><path
       style="fill:#000000;fill-opacity:0.279412;stroke:none;stroke-width:0.264583;stroke-linecap:round;stroke-dasharray:none;stroke-dashoffset:0;stroke-opacity:1"
       d="m 149.95636,156.80104 -0.75634,-0.66606 v 2.01561 l 0.75634,0.66606 z"
       id="path11-8-1-4-3-1-34" /><path
       style="fill:#ffffff;fill-opacity:0.408824;stroke:none;stroke-width:0.264583;stroke-linecap:round;stroke-dasharray:none;stroke-dashoffset:0;stroke-opacity:1"
       d="m 149.20002,156.13498 1.99985,-0.25159 0.75632,0.66606 -1.99983,0.25159 z"
       id="path10-1-9-6-6-8-9" /><path
       style="fill:#626262;fill-opacity:1;stroke:none;stroke-width:0.264583;stroke-linecap:round;stroke-dasharray:none;stroke-dashoffset:0;stroke-opacity:1"
       d="m 149.95637,154.76591 1.99984,-0.25159 v -2.01561 l -0.75632,-0.66606 -1.99985,0.25159 v 2.01561 z"
       id="path13-6-9-1-71-2-7-4-3" /><path
       style="fill:#000000;fill-opacity:0.279412;stroke:none;stroke-width:0.264583;stroke-linecap:round;stroke-dasharray:none;stroke-dashoffset:0;stroke-opacity:1"
       d="m 149.95637,152.7503 -0.75634,-0.66606 v 2.01561 l 0.75634,0.66606 z"
       id="path11-8-1-4-3-1-3-1" /><path
       style="fill:#ffffff;fill-opacity:0.408824;stroke:none;stroke-width:0.264583;stroke-linecap:round;stroke-dasharray:none;stroke-dashoffset:0;stroke-opacity:1"
       d="m 149.20003,152.08424 1.99985,-0.25159 0.75632,0.66606 -1.99983,0.25159 z"
       id="path10-1-9-6-6-8-3-1" /><path
       style="fill:none;fill-opacity:1;stroke:#000000;stroke-width:0.529167;stroke-linecap:round;stroke-linejoin:round;stroke-dasharray:none;stroke-dashoffset:0;stroke-opacity:1"
       d="m 164.74844,160.69666 c 0.0498,1.45601 -0.93344,2.46393 -2.18529,2.46393 h -4.71167"
       id="path17-8-2-5" /><path
       style="fill:none;fill-opacity:1;stroke:#000000;stroke-width:0.529167;stroke-linecap:round;stroke-linejoin:round;stroke-dasharray:none;stroke-dashoffset:0;stroke-opacity:1"
       d="m 159.79576,162.03806 -1.94428,1.12253 1.94428,1.12253"
       id="path18-1-6-1-2" /><path
       style="fill:none;fill-opacity:1;stroke:#000000;stroke-width:0.529167;stroke-linecap:round;stroke-linejoin:round;stroke-dasharray:none;stroke-dashoffset:0;stroke-opacity:1"
       d="m 164.74844,153.46557 v 7.23109"
       id="path18-1-6-1-2-5" /><path
       style="fill:#626262;fill-opacity:1;stroke:none;stroke-width:0.264583;stroke-linecap:round;stroke-dasharray:none;stroke-dashoffset:0;stroke-opacity:1"
       d="m 149.95636,162.8674 1.99984,-0.25159 v -2.01561 l -0.75632,-0.66606 -1.99985,0.25159 v 2.01561 z"
       id="path50-8" /><path
       style="fill:#000000;fill-opacity:0.279412;stroke:none;stroke-width:0.264583;stroke-linecap:round;stroke-dasharray:none;stroke-dashoffset:0;stroke-opacity:1"
       d="m 149.95636,160.85179 -0.75634,-0.66606 v 2.01561 l 0.75634,0.66606 z"
       id="path52-6" /><path
       style="fill:#ffffff;fill-opacity:0.408824;stroke:none;stroke-width:0.264583;stroke-linecap:round;stroke-dasharray:none;stroke-dashoffset:0;stroke-opacity:1"
       d="m 149.20002,160.18573 1.99985,-0.25159 0.75632,0.66606 -1.99983,0.25159 z"
       id="path57-65" /><path
       style="fill:none;stroke:#515151;stroke-width:0.661458;stroke-linecap:round;stroke-linejoin:round;stroke-dasharray:none;stroke-opacity:1"
       d="m 157.01967,161.80592 -0.75322,0.14431 -1.64112,-0.37309 -1.01406,0.41272 -0.79385,-0.47603"
       id="path58-7" /><path
       style="fill:none;fill-opacity:1;stroke:#000000;stroke-width:0.529167;stroke-linecap:round;stroke-linejoin:round;stroke-dasharray:none;stroke-dashoffset:0;stroke-opacity:1"
       d="m 164.74844,153.46557 c 0.0498,1.45601 -0.93344,2.46393 -2.18529,2.46393 h -4.71167"
       id="path100" /><path
       style="fill:none;fill-opacity:1;stroke:#000000;stroke-width:0.529167;stroke-linecap:round;stroke-linejoin:round;stroke-dasharray:none;stroke-dashoffset:0;stroke-opacity:1"
       d="m 159.79576,154.80697 -1.94428,1.12253 1.94428,1.12253"
       id="path101" /><path
       style="fill:none;fill-opacity:1;stroke:#000000;stroke-width:0.529167;stroke-linecap:round;stroke-linejoin:round;stroke-dasharray:none;stroke-dashoffset:0;stroke-opacity:1"
       d="m 164.74844,157.08111 c 0.0498,1.45601 -0.93344,2.46393 -2.18529,2.46393 h -4.71167"
       id="path102" /><path
       style="fill:none;fill-opacity:1;stroke:#000000;stroke-width:0.529167;stroke-linecap:round;stroke-linejoin:round;stroke-dasharray:none;stroke-dashoffset:0;stroke-opacity:1"
       d="m 159.79576,158.42251 -1.94428,1.12253 1.94428,1.12253"
       id="path103" /><path
       style="fill:#e7a700;fill-opacity:1;stroke:none;stroke-width:0.264583;stroke-linecap:round;stroke-dasharray:none;stroke-dashoffset:0;stroke-opacity:1"
       d="m 164.13352,152.58203 1.99984,-0.25159 v -2.01561 l -0.75632,-0.66607 -1.99986,0.25159 v 2.01562 z"
       id="path13-6-9-1-71-2-8-9-8-0" /><path
       style="fill:#ffffff;fill-opacity:0.408824;stroke:none;stroke-width:0.264583;stroke-linecap:round;stroke-dasharray:none;stroke-dashoffset:0;stroke-opacity:1"
       d="m 163.37718,149.90035 1.99986,-0.25159 0.75631,0.66607 -1.99983,0.2516 z"
       id="path10-1-9-6-6-2-5-9-8" /><path
       style="fill:#000000;fill-opacity:0.279412;stroke:none;stroke-width:0.264583;stroke-linecap:round;stroke-dasharray:none;stroke-dashoffset:0;stroke-opacity:1"
       d="m 164.13352,150.56643 -0.75634,-0.66607 v 2.01562 l 0.75634,0.66606 z"
       id="path11-8-1-4-3-5-3-6-8" /><path
       style="fill:#e7a700;fill-opacity:1;stroke:none;stroke-width:0.264583;stroke-linecap:round;stroke-dasharray:none;stroke-dashoffset:0;stroke-opacity:1"
       d="m 161.73237,152.82033 1.99986,-0.25159 v -2.01561 l -0.75634,-0.66607 -1.99984,0.2516 v 2.01561 z"
       id="path13-6-9-1-71-2-8-9-86" /><path
       style="fill:#ffffff;fill-opacity:0.408824;stroke:none;stroke-width:0.264583;stroke-linecap:round;stroke-dasharray:none;stroke-dashoffset:0;stroke-opacity:1"
       d="m 160.97605,150.13866 1.99984,-0.2516 0.75633,0.66607 -1.99985,0.2516 z"
       id="path10-1-9-6-6-2-5-5" /><path
       style="fill:#000000;fill-opacity:0.279412;stroke:none;stroke-width:0.264583;stroke-linecap:round;stroke-dasharray:none;stroke-dashoffset:0;stroke-opacity:1"
       d="m 161.73237,150.80473 -0.75632,-0.66607 v 2.01561 l 0.75632,0.66606 z"
       id="path11-8-1-4-3-5-3-7" /><path
       style="fill:#e7a700;fill-opacity:1;stroke:none;stroke-width:0.264583;stroke-linecap:round;stroke-dasharray:none;stroke-dashoffset:0;stroke-opacity:1"
       d="m 162.80619,150.54763 1.99985,-0.25159 v -2.01562 l -0.75633,-0.66606 -1.99985,0.25159 v 2.01562 z"
       id="path13-6-9-1-71-2-8-9-7-4" /><path
       style="fill:#ffffff;fill-opacity:0.408824;stroke:none;stroke-width:0.264583;stroke-linecap:round;stroke-dasharray:none;stroke-dashoffset:0;stroke-opacity:1"
       d="m 162.04986,147.86595 1.99985,-0.25159 0.75631,0.66606 -1.99983,0.2516 z"
       id="path10-1-9-6-6-2-5-2-4" /><path
       style="fill:#000000;fill-opacity:0.279412;stroke:none;stroke-width:0.264583;stroke-linecap:round;stroke-dasharray:none;stroke-dashoffset:0;stroke-opacity:1"
       d="m 162.80619,148.53202 -0.75633,-0.66607 v 2.01562 l 0.75633,0.66606 z"
       id="path11-8-1-4-3-5-3-0-9" /></g></svg>
