<?xml version="1.0" encoding="UTF-8" standalone="no"?>
<!-- Created with Inkscape (http://www.inkscape.org/) -->

<svg
   width="16.933512mm"
   height="16.928892mm"
   viewBox="0 0 16.933512 16.928892"
   version="1.1"
   id="svg1"
   inkscape:version="1.3.2 (091e20e, 2023-11-25, custom)"
   sodipodi:docname="ICONS.svg"
   xml:space="preserve"
   inkscape:export-filename="arrow_down.svg"
   inkscape:export-xdpi="96"
   inkscape:export-ydpi="96"
   xmlns:inkscape="http://www.inkscape.org/namespaces/inkscape"
   xmlns:sodipodi="http://sodipodi.sourceforge.net/DTD/sodipodi-0.dtd"
   xmlns="http://www.w3.org/2000/svg"
   xmlns:svg="http://www.w3.org/2000/svg"><sodipodi:namedview
     id="namedview1"
     pagecolor="#ffffff"
     bordercolor="#000000"
     borderopacity="0.25"
     inkscape:showpageshadow="false"
     inkscape:pageopacity="0.0"
     inkscape:pagecheckerboard="false"
     inkscape:deskcolor="#d1d1d1"
     inkscape:document-units="px"
     borderlayer="true"
     labelstyle="default"
     shape-rendering="crispEdges"
     inkscape:clip-to-page="false"
     inkscape:zoom="4"
     inkscape:cx="491.75"
     inkscape:cy="514"
     inkscape:window-width="1920"
     inkscape:window-height="1017"
     inkscape:window-x="-8"
     inkscape:window-y="-8"
     inkscape:window-maximized="1"
     inkscape:current-layer="layer1"
     showguides="true" /><defs
     id="defs1" /><g
     inkscape:label="Слой 1"
     inkscape:groupmode="layer"
     id="layer1"
     transform="translate(-148.86898,-127.46885)"><path
       style="fill:#ffffff;fill-opacity:1;stroke:none;stroke-width:0.661459;stroke-linecap:round;stroke-linejoin:round;stroke-dasharray:none;stroke-opacity:1;paint-order:normal"
       d="m 151.14465,143.5876 8.63441,-8.63467 -1.46553,-1.46556 -8.63441,8.63464 -0.47942,1.94502 z"
       id="path115"
       sodipodi:nodetypes="cccccc" /><path
       id="path114"
       style="color:#000000;fill:#ff0f44;fill-opacity:1;stroke:none;stroke-width:1;stroke-linecap:round;stroke-linejoin:round;-inkscape-stroke:none"
       d="m 152.08244,139.71863 -2.40321,2.40314 -0.47943,1.9451 1.9451,-0.47943 3.22933,-3.22952 c -0.30362,-1.00381 -1.6981,0.14242 -2.29179,-0.63929 z"
       sodipodi:nodetypes="cccccc" /><path
       id="path110"
       style="fill:#b9b9b9;fill-opacity:1;stroke:#000000;stroke-width:0.661459;stroke-linecap:round;stroke-linejoin:round;stroke-dasharray:none;stroke-opacity:1;paint-order:normal"
       d="m 164.92548,128.33305 c -0.53704,-0.53689 -1.24491,-0.76987 -1.79141,-0.22335 l -2.94522,2.9453 c -1.05136,-1.05137 -1.64359,-0.41458 -2.25317,0.23712 -0.53639,0.57335 -0.83483,0.83998 0.10901,1.92637 l 2.00325,2.00332 c 0.96315,0.96317 1.33924,0.68188 1.88358,0.13748 0.6753,-0.67531 1.28846,-1.27311 0.27273,-2.28887 l 2.94522,-2.94531 c 0.57602,-0.57601 0.31305,-1.25521 -0.22397,-1.7921 z"
       sodipodi:nodetypes="zccsccsccz" /><path
       style="fill:none;fill-opacity:1;stroke:#000000;stroke-width:0.661459;stroke-linecap:round;stroke-linejoin:round;stroke-dasharray:none;stroke-opacity:1;paint-order:normal"
       d="m 151.14465,143.5876 8.63441,-8.63467 -1.46553,-1.46556 -8.63441,8.63464 -0.47942,1.94502 z"
       id="path111"
       sodipodi:nodetypes="cccccc" /></g></svg>
