<?xml version="1.0" encoding="UTF-8" standalone="no"?>
<!-- Created with Inkscape (http://www.inkscape.org/) -->

<svg
   width="16.933594mm"
   height="16.933336mm"
   viewBox="0 0 16.933594 16.933337"
   version="1.1"
   id="svg1"
   inkscape:version="1.3 (0e150ed6c4, 2023-07-21)"
   sodipodi:docname="stamp_date.svg"
   xmlns:inkscape="http://www.inkscape.org/namespaces/inkscape"
   xmlns:sodipodi="http://sodipodi.sourceforge.net/DTD/sodipodi-0.dtd"
   xmlns="http://www.w3.org/2000/svg"
   xmlns:svg="http://www.w3.org/2000/svg">
  <sodipodi:namedview
     id="namedview1"
     pagecolor="#ffffff"
     bordercolor="#000000"
     borderopacity="0.25"
     inkscape:showpageshadow="false"
     inkscape:pageopacity="0.0"
     inkscape:pagecheckerboard="false"
     inkscape:deskcolor="#d1d1d1"
     inkscape:document-units="px"
     borderlayer="true"
     labelstyle="default"
     shape-rendering="crispEdges"
     inkscape:clip-to-page="false"
     inkscape:zoom="16.287423"
     inkscape:cx="15.134377"
     inkscape:cy="27.01471"
     inkscape:window-width="1920"
     inkscape:window-height="1017"
     inkscape:window-x="-8"
     inkscape:window-y="-8"
     inkscape:window-maximized="1"
     inkscape:current-layer="g69" />
  <defs
     id="defs1" />
  <g
     inkscape:label="Слой 1"
     inkscape:groupmode="layer"
     id="layer1"
     transform="translate(-127.26457,-168.5396)">
    <g
       id="g66"
       transform="translate(46.054951,153.57436)">
      <path
         id="rect24-6"
         style="fill:#ffffff;fill-opacity:1;fill-rule:evenodd;stroke:#000000;stroke-width:0.661458;stroke-linecap:round;stroke-linejoin:round"
         d="m 88.76771,22.952605 h 9.044775 v 8.61524 H 88.76771 Z"
         sodipodi:nodetypes="ccccc" />
      <path
         style="fill:none;fill-opacity:1;stroke:#000000;stroke-width:0.661458;stroke-linecap:round;stroke-linejoin:round;stroke-dasharray:none;stroke-dashoffset:0;stroke-opacity:1"
         d="m 93.845975,31.567845 v -1.99426 h 3.96651"
         id="path24-7"
         sodipodi:nodetypes="ccc" />
      <path
         style="fill:none;fill-opacity:1;stroke:#3a00e4;stroke-width:0.661458;stroke-linecap:round;stroke-linejoin:round;stroke-dasharray:none;stroke-dashoffset:0;stroke-opacity:1;paint-order:stroke markers fill"
         d="m 91.04207,27.685195 v -2.87175 h 3.014915 v 2.87175 z"
         id="path24-2-4"
         sodipodi:nodetypes="ccccc" />
    </g>
    <g
       id="g69"
       transform="matrix(1.1097803,0,0,1.1077768,25.744322,140.867)"
       style="stroke-width:0.789169">
      <path
         id="rect24-6-7"
         style="fill:#ffffff;fill-opacity:1;fill-rule:evenodd;stroke:#000000;stroke-width:0.522002;stroke-linecap:round;stroke-linejoin:round;stroke-dasharray:none"
         d="m 91.73879,26.096785 h 7.384184 V 33.48097 H 91.73879 Z"
         sodipodi:nodetypes="ccccc" />
      <path
         style="fill:none;fill-opacity:1;stroke:#000000;stroke-width:0.522002;stroke-linecap:round;stroke-linejoin:round;stroke-dasharray:none;stroke-dashoffset:0;stroke-opacity:1"
         d="m 91.73879,27.591964 h 7.384184"
         id="path24-7-8"
         sodipodi:nodetypes="cc" />
      <path
         style="font-weight:bold;font-size:5.18181px;line-height:0;font-family:'Liberation Mono';-inkscape-font-specification:'Liberation Mono';letter-spacing:-0.485793px;fill:#db0000;stroke-width:0.0835201"
         d="m 92.918417,32.201126 v -0.528808 h 0.98424 v -2.254391 q -0.09868,0.207475 -0.394708,0.349165 -0.293501,0.14169 -0.617364,0.14169 v -0.541458 q 0.351695,0 0.630015,-0.154341 0.27832,-0.154341 0.42001,-0.425071 h 0.673028 v 2.884406 h 0.817248 v 0.528808 z m 5.088195,-1.148702 q 0,0.354225 -0.159402,0.627485 -0.156871,0.270729 -0.457962,0.42254 -0.298562,0.149281 -0.703391,0.149281 -0.536398,0 -0.860261,-0.240367 -0.321333,-0.242898 -0.397238,-0.70086 l 0.71098,-0.0582 q 0.05566,0.227717 0.197354,0.331454 0.141691,0.103737 0.356756,0.103737 0.273259,0 0.4276,-0.161931 0.154341,-0.161932 0.154341,-0.457963 0,-0.263139 -0.14928,-0.42001 -0.149281,-0.159401 -0.41748,-0.159401 -0.296031,0 -0.483264,0.230246 h -0.69327 l 0.123979,-1.930528 h 2.143063 V 29.31672 H 96.30127 l -0.05819,0.824839 q 0.258078,-0.227716 0.645196,-0.227716 0.508566,0 0.812188,0.313742 0.306152,0.311212 0.306152,0.824839 z"
         id="text1-6-0-9-9"
         aria-label="15" />
      <g
         id="g68"
         transform="translate(20.525997)"
         style="stroke-width:0.789169">
        <path
           style="fill:none;fill-opacity:1;stroke:#000000;stroke-width:0.522002;stroke-linecap:round;stroke-linejoin:round;stroke-dasharray:none;stroke-dashoffset:0;stroke-opacity:1"
           d="m 73.247474,25.241535 v 1.495179"
           id="path24-7-8-6"
           sodipodi:nodetypes="cc" />
        <path
           style="fill:none;fill-opacity:1;stroke:#000000;stroke-width:0.522002;stroke-linecap:round;stroke-linejoin:round;stroke-dasharray:none;stroke-dashoffset:0;stroke-opacity:1"
           d="m 76.321028,25.241535 v 1.495179"
           id="path67"
           sodipodi:nodetypes="cc" />
      </g>
    </g>
    <g
       id="g18-8-3-1"
       style="fill:none;fill-opacity:1;stroke:#000000;stroke-width:0.529167;stroke-dasharray:none;stroke-opacity:1"
       transform="translate(23.648348,125.71416)">
      <path
         style="fill:none;fill-opacity:1;stroke:#000000;stroke-width:0.529167;stroke-linecap:round;stroke-linejoin:round;stroke-dasharray:none;stroke-dashoffset:0;stroke-opacity:1"
         d="m 104.53365,54.214451 c -0.0498,1.456005 0.93344,2.463932 2.18529,2.463932 h 3.23867"
         id="path17-8-4-0"
         sodipodi:nodetypes="ccc" />
      <path
         style="fill:none;fill-opacity:1;stroke:#000000;stroke-width:0.529167;stroke-linecap:round;stroke-linejoin:round;stroke-dasharray:none;stroke-dashoffset:0;stroke-opacity:1"
         d="m 108.01333,55.555851 1.94428,1.122532 -1.94428,1.122532"
         id="path18-1-6-5-8"
         sodipodi:nodetypes="ccc"
         inkscape:transform-center-x="0.972141"
         inkscape:transform-center-y="0.410875" />
    </g>
  </g>
</svg>
