<?xml version="1.0" encoding="UTF-8" standalone="no"?>
<!-- Created with Inkscape (http://www.inkscape.org/) -->

<svg
   width="16.933332mm"
   height="16.933336mm"
   viewBox="0 0 16.933333 16.933336"
   version="1.1"
   id="svg1"
   inkscape:version="1.4.2 (f4327f4, 2025-05-13)"
   sodipodi:docname="weld_delete.svg"
   xml:space="preserve"
   inkscape:export-filename="macros\weld_lines.svg"
   inkscape:export-xdpi="96"
   inkscape:export-ydpi="96"
   xmlns:inkscape="http://www.inkscape.org/namespaces/inkscape"
   xmlns:sodipodi="http://sodipodi.sourceforge.net/DTD/sodipodi-0.dtd"
   xmlns="http://www.w3.org/2000/svg"
   xmlns:svg="http://www.w3.org/2000/svg"><sodipodi:namedview
     id="namedview1"
     pagecolor="#ffffff"
     bordercolor="#000000"
     borderopacity="0.25"
     inkscape:showpageshadow="false"
     inkscape:pageopacity="0.0"
     inkscape:pagecheckerboard="false"
     inkscape:deskcolor="#d1d1d1"
     inkscape:document-units="px"
     borderlayer="true"
     labelstyle="default"
     shape-rendering="crispEdges"
     inkscape:clip-to-page="false"
     inkscape:zoom="5.6568544"
     inkscape:cx="35.443727"
     inkscape:cy="31.466251"
     inkscape:window-width="1920"
     inkscape:window-height="1017"
     inkscape:window-x="-8"
     inkscape:window-y="-8"
     inkscape:window-maximized="1"
     inkscape:current-layer="layer1"
     showguides="true"
     showgrid="false"><inkscape:page
       x="9.4859949e-13"
       y="0"
       width="16.933332"
       height="16.933336"
       id="page2"
       margin="0"
       bleed="0" /></sodipodi:namedview><defs
     id="defs1" /><g
     inkscape:label="Слой 1"
     inkscape:groupmode="layer"
     id="layer1"
     transform="translate(-331.54862,-43.068821)"><g
       id="g150"
       transform="matrix(0.99999022,0,0,0.99999017,0.00332346,5.0745704e-4)"
       style="stroke-width:1.00001"><path
         style="fill:#a2a2a2;fill-opacity:1;stroke:none;stroke-width:0.661465;stroke-linecap:round;stroke-linejoin:round;stroke-dasharray:none;stroke-opacity:1"
         d="m 332.15789,44.261333 -0.2786,0.985445 1.7313,0.925724 2.6168,0.656966 0.46765,-1.831538 -2.80587,-0.736597 z"
         id="path143"
         sodipodi:nodetypes="ccccccc" /><path
         style="fill:#626262;fill-opacity:1;stroke:none;stroke-width:0.661465;stroke-linecap:round;stroke-linejoin:round;stroke-dasharray:none;stroke-opacity:1"
         d="m 335.10256,46.547071 1.12483,0.282397 0.46765,-1.831538 -1.12033,-0.29411 z"
         id="path144"
         sodipodi:nodetypes="ccccc" /><path
         style="fill:none;stroke:#000000;stroke-width:0.661465;stroke-linecap:round;stroke-linejoin:round;stroke-dasharray:none;stroke-opacity:1"
         d="m 332.15789,44.261333 -0.2786,0.985445 1.7313,0.925724 2.6168,0.656966 0.46765,-1.831538 -2.80587,-0.736597 z"
         id="path145"
         sodipodi:nodetypes="ccccccc" /><path
         style="fill:#474747;fill-opacity:1;stroke:#000000;stroke-width:0.661465;stroke-linecap:round;stroke-linejoin:round;stroke-dasharray:none;stroke-opacity:1"
         d="m 336.31077,46.502908 c 0,0 2.10202,0.439915 2.70898,0.987385 0.60693,0.54747 2.31198,2.902712 2.31198,2.902712 l 0.9353,-0.746551 c 0,0 -1.43281,-1.990804 -1.73129,-2.388965 -0.29851,-0.39816 -0.93616,-1.047781 -1.77111,-1.323882 -0.80206,-0.265224 -2.16126,-0.576662 -2.16126,-0.576662 z"
         id="path146"
         sodipodi:nodetypes="csccsscc" /><path
         style="fill:#ff0f44;fill-opacity:1;stroke:#000000;stroke-width:0.661465;stroke-linecap:round;stroke-linejoin:round;stroke-dasharray:none;stroke-opacity:1"
         d="m 342.41823,55.045474 c 0,0 0.1695,-0.137181 0.44862,-0.340245 0.2791,-0.203066 1.26862,-0.533048 1.01485,-0.901104 -0.25369,-0.368056 -1.67459,-1.82759 -1.86488,-2.106805 -0.1903,-0.279214 -1.24754,1.141246 -1.24754,1.141246 z"
         id="path147"
         sodipodi:nodetypes="cssscc" /><path
         style="fill:#0092bf;fill-opacity:1;stroke:#000000;stroke-width:0.661465;stroke-linecap:round;stroke-linejoin:round;stroke-dasharray:none;stroke-opacity:1"
         d="m 341.33173,50.393005 c 0,0 0.64678,-0.57578 0.9353,-0.746551 0.28852,-0.17077 0.45737,-0.114463 0.61215,0.110771 0.15479,0.225233 4.98608,7.143649 5.08755,7.321332 0.10144,0.17768 0.31717,0.621887 0.0762,0.875718 -0.24105,0.253833 -0.83729,0.647273 -1.06566,0.786878 -0.22835,0.139609 -0.61402,0.0498 -0.76119,-0.164989 -1.43084,-2.08828 -2.82099,-4.157126 -4.35147,-6.155424 -0.1903,-0.279214 -1.33207,0.583815 -1.33207,0.583815 0,0 -0.26642,-0.368056 -0.34252,-0.545739 -0.0762,-0.177683 0.46122,-1.522617 1.14175,-2.065811 z"
         id="path150"
         sodipodi:nodetypes="cssssssccssc" /></g><ellipse
       style="fill:#f05b43;fill-opacity:1;fill-rule:evenodd;stroke:#be3526;stroke-width:0.661458;stroke-dasharray:none;stroke-opacity:1"
       id="circle30-1-4"
       cx="335.7164"
       cy="55.768826"
       inkscape:export-filename="delete.svg"
       inkscape:export-xdpi="96"
       inkscape:export-ydpi="96"
       rx="3.8370299"
       ry="3.9026041" /><path
       id="path30-5-2"
       style="color:#000000;fill:#ffffff;fill-opacity:1;stroke-width:1;-inkscape-stroke:none"
       d="m 333.43551,55.222019 v 1.093611 h 4.56181 v -1.093611 z"
       sodipodi:nodetypes="ccccc" /></g></svg>
