<?xml version="1.0" encoding="UTF-8" standalone="no"?>
<!-- Created with Inkscape (http://www.inkscape.org/) -->

<svg
   width="16.933365mm"
   height="16.933332mm"
   viewBox="0 0 16.933365 16.933332"
   version="1.1"
   id="svg1"
   xml:space="preserve"
   xmlns="http://www.w3.org/2000/svg"
   xmlns:svg="http://www.w3.org/2000/svg"><defs
     id="defs1" /><g
     id="layer1"
     transform="translate(-310.40348,-43.068823)"><g
       id="g158"
       transform="matrix(0.94461529,0,0,0.94435273,37.699253,-2.3727147)"
       style="stroke-width:1.05878"><path
         style="fill:#a2a2a2;fill-opacity:1;stroke:none;stroke-width:0.700338;stroke-linecap:round;stroke-linejoin:round;stroke-dasharray:none;stroke-opacity:1"
         d="m 291.5285,48.469413 -0.25678,0.907912 1.59573,0.85289 2.41191,0.605277 0.43103,-1.687436 -2.58617,-0.678643 z"
         id="path153" /><path
         style="fill:#626262;fill-opacity:1;stroke:none;stroke-width:0.700338;stroke-linecap:round;stroke-linejoin:round;stroke-dasharray:none;stroke-opacity:1"
         d="m 294.2426,50.575313 1.03676,0.260179 0.43103,-1.687436 -1.03261,-0.27097 z"
         id="path154" /><path
         style="fill:none;stroke:#000000;stroke-width:0.700338;stroke-linecap:round;stroke-linejoin:round;stroke-dasharray:none;stroke-opacity:1"
         d="m 291.5285,48.469413 -0.25678,0.907912 1.59573,0.85289 2.41191,0.605277 0.43103,-1.687436 -2.58617,-0.678643 z"
         id="path155" /><path
         style="fill:#474747;fill-opacity:1;stroke:#000000;stroke-width:0.700338;stroke-linecap:round;stroke-linejoin:round;stroke-dasharray:none;stroke-opacity:1"
         d="m 295.35621,50.534625 c 0,0 1.93743,0.405303 2.49686,0.909699 0.55941,0.504396 2.13095,2.674332 2.13095,2.674332 l 0.86207,-0.687814 c 0,0 -1.32062,-1.834171 -1.59573,-2.201005 -0.27514,-0.366834 -0.86286,-0.965344 -1.63243,-1.219721 -0.73926,-0.244357 -1.99203,-0.531292 -1.99203,-0.531292 z"
         id="path156" /><path
         style="fill:#ff0f44;fill-opacity:1;stroke:#000000;stroke-width:0.700338;stroke-linecap:round;stroke-linejoin:round;stroke-dasharray:none;stroke-opacity:1"
         d="m 300.98545,58.405077 c 0,0 0.15623,-0.126388 0.41349,-0.313475 0.25725,-0.187089 1.16929,-0.491109 0.93539,-0.830207 -0.23383,-0.339098 -1.54347,-1.683798 -1.71886,-1.941045 -0.1754,-0.257246 -1.14986,1.051455 -1.14986,1.051455 z"
         id="path157" /><path
         style="fill:#0092bf;fill-opacity:1;stroke:#000000;stroke-width:0.700338;stroke-linecap:round;stroke-linejoin:round;stroke-dasharray:none;stroke-opacity:1"
         d="m 299.98402,54.118656 c 0,0 0.59614,-0.530479 0.86207,-0.687814 0.26593,-0.157334 0.42156,-0.105457 0.56422,0.102056 0.14267,0.207512 4.59566,6.5816 4.68919,6.745303 0.0935,0.1637 0.29233,0.572958 0.0702,0.806818 -0.22217,0.233862 -0.77173,0.596347 -0.98221,0.724968 -0.21047,0.128625 -0.56595,0.04588 -0.70159,-0.152008 -1.31881,-1.923978 -2.60011,-3.830051 -4.01075,-5.671126 -0.1754,-0.257246 -1.22777,0.537881 -1.22777,0.537881 0,0 -0.24556,-0.339098 -0.3157,-0.502801 -0.0702,-0.163703 0.42511,-1.40282 1.05235,-1.903277 z"
         id="path158" /></g><path
       style="baseline-shift:baseline;display:inline;overflow:visible;opacity:1;fill:#e7a700;fill-opacity:1;stroke:#000000;stroke-width:0.264583;stroke-linecap:round;stroke-linejoin:round;stroke-dasharray:none;stroke-opacity:1;enable-background:accumulate;stop-color:#000000;stop-opacity:1"
       d="m 314.6113,53.367227 a 0.85998181,0.85998181 0 0 0 -0.73633,0.154297 l -3.00781,2.332031 a 0.85989583,0.85989583 0 0 0 -0.15234,1.205079 0.85989583,0.85989583 0 0 0 1.20703,0.154296 l 2.13867,-1.660156 1.68945,3.806641 a 0.85998181,0.85998181 0 0 0 0.90625,0.501953 l 5.35743,-0.759766 a 0.85989583,0.85989583 0 0 0 0.73242,-0.972656 0.85989583,0.85989583 0 0 0 -0.97266,-0.730469 l -4.71484,0.667969 -1.8711,-4.214844 a 0.85998181,0.85998181 0 0 0 -0.57617,-0.484375 z"
       id="path164" /></g></svg>
