<?xml version="1.0" encoding="UTF-8" standalone="no"?>
<!-- Created with Inkscape (http://www.inkscape.org/) -->

<svg
   width="16.933332mm"
   height="16.933332mm"
   viewBox="0 0 16.933333 16.933332"
   version="1.1"
   id="svg1"
   inkscape:version="1.3.2 (091e20e, 2023-11-25, custom)"
   sodipodi:docname="ICONS.svg"
   xml:space="preserve"
   inkscape:export-filename="arrow_down.svg"
   inkscape:export-xdpi="96"
   inkscape:export-ydpi="96"
   xmlns:inkscape="http://www.inkscape.org/namespaces/inkscape"
   xmlns:sodipodi="http://sodipodi.sourceforge.net/DTD/sodipodi-0.dtd"
   xmlns="http://www.w3.org/2000/svg"
   xmlns:svg="http://www.w3.org/2000/svg"><sodipodi:namedview
     id="namedview1"
     pagecolor="#ffffff"
     bordercolor="#000000"
     borderopacity="0.25"
     inkscape:showpageshadow="false"
     inkscape:pageopacity="0.0"
     inkscape:pagecheckerboard="false"
     inkscape:deskcolor="#d1d1d1"
     inkscape:document-units="px"
     borderlayer="true"
     labelstyle="default"
     shape-rendering="crispEdges"
     inkscape:clip-to-page="false"
     inkscape:zoom="7.2126188"
     inkscape:cx="279.30216"
     inkscape:cy="199.09551"
     inkscape:window-width="1920"
     inkscape:window-height="1017"
     inkscape:window-x="-8"
     inkscape:window-y="-8"
     inkscape:window-maximized="1"
     inkscape:current-layer="layer1"
     showguides="true"
     showgrid="false" /><defs
     id="defs1" /><g
     inkscape:label="Слой 1"
     inkscape:groupmode="layer"
     id="layer1"
     transform="translate(-268.77624,-43.068823)"><g
       id="g133"
       transform="matrix(1.0849525,0,0,1.0853971,-46.909081,-8.3472274)"
       style="stroke-width:0.92151"><path
         style="fill:#a2a2a2;fill-opacity:1;stroke:none;stroke-width:0.609541;stroke-linecap:round;stroke-linejoin:round;stroke-dasharray:none;stroke-opacity:1"
         d="m 291.5285,48.469413 -0.25678,0.907912 1.59573,0.85289 2.41191,0.605277 0.43103,-1.687436 -2.58617,-0.678643 z"
         id="path132"
         sodipodi:nodetypes="ccccccc" /><path
         style="fill:#626262;fill-opacity:1;stroke:none;stroke-width:0.609541;stroke-linecap:round;stroke-linejoin:round;stroke-dasharray:none;stroke-opacity:1"
         d="m 294.2426,50.575313 1.03676,0.260179 0.43103,-1.687436 -1.03261,-0.27097 z"
         id="path131"
         sodipodi:nodetypes="ccccc" /><path
         style="fill:none;stroke:#000000;stroke-width:0.609541;stroke-linecap:round;stroke-linejoin:round;stroke-dasharray:none;stroke-opacity:1"
         d="m 291.5285,48.469413 -0.25678,0.907912 1.59573,0.85289 2.41191,0.605277 0.43103,-1.687436 -2.58617,-0.678643 z"
         id="path127"
         sodipodi:nodetypes="ccccccc" /><path
         style="fill:#474747;fill-opacity:1;stroke:#000000;stroke-width:0.609541;stroke-linecap:round;stroke-linejoin:round;stroke-dasharray:none;stroke-opacity:1"
         d="m 295.35621,50.534625 c 0,0 1.93743,0.405303 2.49686,0.909699 0.55941,0.504396 2.13095,2.674332 2.13095,2.674332 l 0.86207,-0.687814 c 0,0 -1.32062,-1.834171 -1.59573,-2.201005 -0.27514,-0.366834 -0.86286,-0.965344 -1.63243,-1.219721 -0.73926,-0.244357 -1.99203,-0.531292 -1.99203,-0.531292 z"
         id="path129"
         sodipodi:nodetypes="csccsscc" /><path
         style="fill:#ff0f44;fill-opacity:1;stroke:#000000;stroke-width:0.609541;stroke-linecap:round;stroke-linejoin:round;stroke-dasharray:none;stroke-opacity:1"
         d="m 300.98545,58.405077 c 0,0 0.15623,-0.126388 0.41349,-0.313475 0.25725,-0.187089 1.16929,-0.491109 0.93539,-0.830207 -0.23383,-0.339098 -1.54347,-1.683798 -1.71886,-1.941045 -0.1754,-0.257246 -1.14986,1.051455 -1.14986,1.051455 z"
         id="path133"
         sodipodi:nodetypes="cssscc" /><path
         style="fill:#0092bf;fill-opacity:1;stroke:#000000;stroke-width:0.609541;stroke-linecap:round;stroke-linejoin:round;stroke-dasharray:none;stroke-opacity:1"
         d="m 299.98402,54.118656 c 0,0 0.59614,-0.530479 0.86207,-0.687814 0.26593,-0.157334 0.42156,-0.105457 0.56422,0.102056 0.14267,0.207512 4.59566,6.5816 4.68919,6.745303 0.0935,0.1637 0.29233,0.572958 0.0702,0.806818 -0.22217,0.233862 -0.77173,0.596347 -0.98221,0.724968 -0.21047,0.128625 -0.56595,0.04588 -0.70159,-0.152008 -1.31881,-1.923978 -2.60011,-3.830051 -4.01075,-5.671126 -0.1754,-0.257246 -1.22777,0.537881 -1.22777,0.537881 0,0 -0.24556,-0.339098 -0.3157,-0.502801 -0.0702,-0.163703 0.42511,-1.40282 1.05235,-1.903277 z"
         id="path130"
         sodipodi:nodetypes="cssssssccssc" /></g></g></svg>
