<?xml version="1.0" encoding="UTF-8" standalone="no"?>
<!-- Created with Inkscape (http://www.inkscape.org/) -->

<svg
   width="16.933332mm"
   height="16.933332mm"
   viewBox="0 0 16.933333 16.933332"
   version="1.1"
   id="svg1"
   xml:space="preserve"
   xmlns="http://www.w3.org/2000/svg"
   xmlns:svg="http://www.w3.org/2000/svg"><defs
     id="defs1" /><g
     id="layer1"
     transform="translate(-290.19789,-43.068823)"><g
       id="g143"
       transform="matrix(0.94461529,0,0,0.94435273,17.493677,-2.3727147)"
       style="stroke-width:1.05878"><path
         style="fill:#a2a2a2;fill-opacity:1;stroke:none;stroke-width:0.700338;stroke-linecap:round;stroke-linejoin:round;stroke-dasharray:none;stroke-opacity:1"
         d="m 291.5285,48.469413 -0.25678,0.907912 1.59573,0.85289 2.41191,0.605277 0.43103,-1.687436 -2.58617,-0.678643 z"
         id="path134" /><path
         style="fill:#626262;fill-opacity:1;stroke:none;stroke-width:0.700338;stroke-linecap:round;stroke-linejoin:round;stroke-dasharray:none;stroke-opacity:1"
         d="m 294.2426,50.575313 1.03676,0.260179 0.43103,-1.687436 -1.03261,-0.27097 z"
         id="path135" /><path
         style="fill:none;stroke:#000000;stroke-width:0.700338;stroke-linecap:round;stroke-linejoin:round;stroke-dasharray:none;stroke-opacity:1"
         d="m 291.5285,48.469413 -0.25678,0.907912 1.59573,0.85289 2.41191,0.605277 0.43103,-1.687436 -2.58617,-0.678643 z"
         id="path136" /><path
         style="fill:#474747;fill-opacity:1;stroke:#000000;stroke-width:0.700338;stroke-linecap:round;stroke-linejoin:round;stroke-dasharray:none;stroke-opacity:1"
         d="m 295.35621,50.534625 c 0,0 1.93743,0.405303 2.49686,0.909699 0.55941,0.504396 2.13095,2.674332 2.13095,2.674332 l 0.86207,-0.687814 c 0,0 -1.32062,-1.834171 -1.59573,-2.201005 -0.27514,-0.366834 -0.86286,-0.965344 -1.63243,-1.219721 -0.73926,-0.244357 -1.99203,-0.531292 -1.99203,-0.531292 z"
         id="path137" /><path
         style="fill:#ff0f44;fill-opacity:1;stroke:#000000;stroke-width:0.700338;stroke-linecap:round;stroke-linejoin:round;stroke-dasharray:none;stroke-opacity:1"
         d="m 300.98545,58.405077 c 0,0 0.15623,-0.126388 0.41349,-0.313475 0.25725,-0.187089 1.16929,-0.491109 0.93539,-0.830207 -0.23383,-0.339098 -1.54347,-1.683798 -1.71886,-1.941045 -0.1754,-0.257246 -1.14986,1.051455 -1.14986,1.051455 z"
         id="path138" /><path
         style="fill:#0092bf;fill-opacity:1;stroke:#000000;stroke-width:0.700338;stroke-linecap:round;stroke-linejoin:round;stroke-dasharray:none;stroke-opacity:1"
         d="m 299.98402,54.118656 c 0,0 0.59614,-0.530479 0.86207,-0.687814 0.26593,-0.157334 0.42156,-0.105457 0.56422,0.102056 0.14267,0.207512 4.59566,6.5816 4.68919,6.745303 0.0935,0.1637 0.29233,0.572958 0.0702,0.806818 -0.22217,0.233862 -0.77173,0.596347 -0.98221,0.724968 -0.21047,0.128625 -0.56595,0.04588 -0.70159,-0.152008 -1.31881,-1.923978 -2.60011,-3.830051 -4.01075,-5.671126 -0.1754,-0.257246 -1.22777,0.537881 -1.22777,0.537881 0,0 -0.24556,-0.339098 -0.3157,-0.502801 -0.0702,-0.163703 0.42511,-1.40282 1.05235,-1.903277 z"
         id="path141" /></g><g
       id="g164"
       transform="translate(-0.7199809,1.6610114)"><path
         style="fill:none;fill-opacity:1;stroke:#3a00e4;stroke-width:0.661458;stroke-linecap:round;stroke-linejoin:round;stroke-dasharray:none;stroke-opacity:1"
         d="m 291.57935,55.202328 3.00754,-2.3323 2.13412,4.809658 5.3578,-0.76038"
         id="path148" /><circle
         style="fill:#3a00e4;fill-opacity:1;fill-rule:evenodd;stroke-width:0.264583"
         id="circle159"
         cx="291.57935"
         cy="55.202328"
         r="0.66145831" /><circle
         style="fill:#3a00e4;fill-opacity:1;fill-rule:evenodd;stroke-width:0.264583"
         id="circle162"
         cx="294.58688"
         cy="52.870029"
         r="0.66145831" /><circle
         style="fill:#3a00e4;fill-opacity:1;fill-rule:evenodd;stroke-width:0.264583"
         id="circle163"
         cx="296.72101"
         cy="57.679688"
         r="0.66145831" /><circle
         style="fill:#3a00e4;fill-opacity:1;fill-rule:evenodd;stroke-width:0.264583"
         id="circle164"
         cx="302.0788"
         cy="56.919308"
         r="0.66145831" /></g></g></svg>
