<?xml version="1.0" encoding="UTF-8" standalone="no"?>
<!-- Created with Inkscape (http://www.inkscape.org/) -->

<svg
   width="33.866665mm"
   height="33.866665mm"
   viewBox="0 0 33.866665 33.866665"
   version="1.1"
   id="svg1"
   inkscape:version="1.4.2 (f4327f4, 2025-05-13)"
   sodipodi:docname="ICONS.svg"
   xml:space="preserve"
   inkscape:export-filename="macros\weld_lines.svg"
   inkscape:export-xdpi="96"
   inkscape:export-ydpi="96"
   xmlns:inkscape="http://www.inkscape.org/namespaces/inkscape"
   xmlns:sodipodi="http://sodipodi.sourceforge.net/DTD/sodipodi-0.dtd"
   xmlns="http://www.w3.org/2000/svg"
   xmlns:svg="http://www.w3.org/2000/svg"><sodipodi:namedview
     id="namedview1"
     pagecolor="#ffffff"
     bordercolor="#000000"
     borderopacity="0.25"
     inkscape:showpageshadow="false"
     inkscape:pageopacity="0.0"
     inkscape:pagecheckerboard="false"
     inkscape:deskcolor="#d1d1d1"
     inkscape:document-units="px"
     borderlayer="true"
     labelstyle="default"
     shape-rendering="crispEdges"
     inkscape:clip-to-page="false"
     inkscape:zoom="1"
     inkscape:cx="185"
     inkscape:cy="463"
     inkscape:window-width="1920"
     inkscape:window-height="1017"
     inkscape:window-x="-8"
     inkscape:window-y="-8"
     inkscape:window-maximized="1"
     inkscape:current-layer="layer1"
     showguides="true"
     showgrid="false"><inkscape:page
       x="0"
       y="0"
       width="33.866665"
       height="33.866665"
       id="page2"
       margin="0"
       bleed="0" /></sodipodi:namedview><defs
     id="defs1" /><g
     inkscape:label="Слой 1"
     inkscape:groupmode="layer"
     id="layer1"
     transform="translate(-159.50427,-211.49839)"><rect
       style="display:inline;fill:#222222;fill-opacity:1;fill-rule:evenodd;stroke:#01b2ff;stroke-width:1.05833;stroke-dasharray:none;stroke-opacity:1"
       id="rect832"
       width="32.808334"
       height="32.808334"
       x="160.03343"
       y="212.02756"
       inkscape:export-filename="rect832.png"
       inkscape:export-xdpi="96"
       inkscape:export-ydpi="96" /><path
       style="display:inline;fill:#01b2ff;fill-opacity:1;stroke:none;stroke-width:0.132428"
       d="m 175.31685,233.1948 c -0.65883,-0.65883 -1.18682,-2.08986 -2.11886,-2.3616 -0.69498,-0.20275 -1.26252,0.47065 -1.854,0.33107 -0.86315,-0.20381 -1.39808,-1.34891 -2.25128,-1.63337 -0.57473,-0.19149 -1.07457,0.1956 -1.36843,0.61805 -0.78979,1.1353 -0.64104,1.99953 0.0662,3.17828 0.38557,0.64254 1.6139,1.38401 2.36164,1.45671 1.05722,0.10277 2.34612,-0.34524 3.09,0.66215 0.34586,0.46826 0.69375,1.27131 0.75043,1.854 0.14633,1.50571 -0.54445,3.58868 1.72157,3.84042 1.9475,0.21639 1.12074,-1.62397 1.65536,-2.64857 0.16381,-0.31386 0.5562,-0.50044 0.86078,-0.64002 0.69459,-0.31836 1.51194,-0.0826 2.25129,-0.15455 1.0879,-0.10581 2.47919,-0.4341 3.26661,-1.23595 0.67513,-0.68771 0.95323,-2.01848 1.3905,-2.86934 0.28645,-0.55752 1.32164,-1.41128 1.14763,-2.11885 -0.18646,-0.75855 -2.09727,0.39199 -2.49403,0.55183 -1.46479,0.58997 -3.01672,0.69803 -4.50257,1.21384 -1.05559,0.36656 -1.90578,1.16497 -2.781,1.8099 0,-1.56398 0.15124,-3.21179 0,-4.76743 -0.0735,-0.75616 -0.47886,-2.34663 -0.0662,-3.04586 0.24036,-0.40734 0.63751,-0.16699 0.99322,-0.13242 0.59447,0.0577 1.40559,0.093 1.98643,-0.0441 0.53699,-0.12686 1.26257,-0.35623 1.72157,-0.66214 0.41529,-0.27691 0.693,-0.68638 1.19185,-0.8388 1.31316,-0.40113 3.08069,0.0663 4.23772,-0.75034 0.7465,-0.52707 0.45396,-1.52007 0.11031,-2.20719 -0.15084,-0.30184 -0.58507,-0.69009 -0.44138,-1.05943 0.17785,-0.4573 0.76503,-0.65965 0.99321,-1.0815 1.07598,-1.98899 -1.64847,-1.75297 -2.64857,-1.83192 0.0152,-0.57673 0.29518,-1.18373 -0.0662,-1.72158 -0.37213,-0.55387 -2.3428,-1.00669 -2.97964,-0.88286 -0.52826,0.10273 -1.33555,0.69815 -1.854,0.59593 -0.74372,-0.14664 -0.90926,-1.00988 -1.854,-0.90492 -1.48095,0.16456 -2.31644,1.99095 -3.84043,2.09678 -1.39912,0.0972 -3.53264,-0.60029 -4.74535,0.4635 -0.62846,0.55127 0.14011,1.38802 -0.44144,1.89815 -0.82891,0.72711 -2.90698,0.92688 -3.35485,2.03057 -0.20687,0.50979 0.18458,1.03411 0.41936,1.45671 0.24371,0.43874 0.26247,0.97335 0.70628,1.28019 0.97932,0.67684 2.52603,-0.12064 3.44314,0.59593 0.78938,0.61671 0.9971,1.74011 2.25129,1.80976 0.71838,0.04 1.94378,-0.94183 2.51614,-0.70624 0.61751,0.25427 0.34842,1.15319 0.39729,1.65536 0.15083,1.55087 0.57805,3.36064 0.13242,4.89985 m 3.44315,-14.43471 h -3.17829 l -0.13243,-0.66214 c 0.86423,-0.34116 3.05116,-2.60134 3.31072,-0.26485 0.0334,0.3005 0,0.62418 0,0.92699 m 2.25128,-1.56706 c 0.32604,-0.11208 0.73988,0.004 1.05943,0.0662 0.25559,0.0497 0.54971,0 0.79457,0.0883 1.8397,0.66658 -1.44744,2.29383 -0.77245,3.13414 0.98036,1.22054 2.71889,-1.4979 3.79619,-0.72835 0.34365,0.24544 -0.004,0.77006 -0.24274,0.94907 -0.58811,0.44111 -1.16656,0.52441 -1.72157,1.10357 -0.12726,0.13273 -0.46469,0.3957 -0.4194,0.61801 0.10303,0.50555 1.53339,0.36351 1.87611,0.70628 0.33584,0.33579 0.36471,0.83252 -0.13242,1.01533 -0.87046,0.31994 -2.29208,0.20923 -3.17829,0 -0.29783,-0.0703 -0.83867,-0.23733 -0.86079,-0.61805 -0.0385,-0.66566 0.61262,-1.16766 0.41941,-1.98643 -0.22116,-0.93645 -1.67748,-1.68298 -1.67748,-2.51614 0,-0.36729 0.38285,-0.61599 0.52972,-0.927 0.1507,-0.31911 0.14037,-0.77108 0.52971,-0.90492 m -9.79971,1.58914 c 1.36465,-0.2843 1.17684,0.53296 0.83871,1.43464 -0.14306,0.3815 -0.10239,1.2908 -0.57385,1.43464 -0.50281,0.1534 -0.59661,-0.57587 -0.70628,-0.90493 -0.26107,-0.78321 -0.68596,-1.72949 0.44142,-1.96435 m 5.29714,0.79457 c 1.17199,-0.17906 3.2637,0.37173 3.86254,1.43464 0.18461,0.32778 0.48734,1.08364 0.30896,1.45671 -0.44046,0.92104 -2.98282,1.352 -3.90664,1.3905 -1.13743,0.0474 -2.07582,0.0193 -3.17829,-0.28693 -0.30136,-0.0837 -0.79033,-0.087 -1.01529,-0.33107 -0.42349,-0.45954 -0.10765,-1.28284 0.26486,-1.65536 0.64131,-0.6413 1.52368,-0.67526 2.20715,-1.1477 0.64201,-0.44379 0.59341,-0.7289 1.45671,-0.86079 m -5.42957,2.62649 c 0.0126,0.47762 0.37589,1.40184 0.0662,1.83193 -0.22183,0.30811 -1.05399,0.1545 -1.3905,0.1545 -0.64299,0 -1.81227,0.12236 -2.33958,-0.33107 -1.19259,-1.02565 -0.16712,-2.40198 1.14772,-2.38372 0.89827,0.0125 1.59869,0.70422 2.51615,0.72836 m 6.22414,2.38372 c 0.56044,0 1.04168,-0.21163 1.58914,-0.26486 0.55117,-0.0536 1.80381,0.5317 1.25807,1.28019 -0.3124,0.4284 -2.45999,0.55143 -2.781,0.13242 -0.18553,-0.24234 -0.0662,-0.85575 -0.0662,-1.14775 m -4.76743,0.15454 c 0.85582,-0.29426 2.80352,0.49912 1.19186,1.10353 -0.36538,0.13706 -1.08803,0.33782 -1.43464,0.0883 -0.35891,-0.2585 -0.14212,-1.05957 0.24278,-1.19186 m 1.72158,9.91002 c -0.57064,-0.21029 -1.00779,-0.70518 -1.58915,-0.8829 -1.58258,-0.48349 -3.56838,0.25533 -4.01699,-1.8981 -0.0851,-0.40854 -0.0717,-0.65923 0.0441,-1.05943 1.22014,0.0963 1.64983,1.10049 2.64857,1.65537 0.69478,0.38602 1.05774,-0.14105 1.72157,-0.0662 0.87734,0.0988 1.19186,1.55047 1.19186,2.25128 m 9.53485,-1.45671 c 0.25268,0.60003 -0.0522,0.88965 -0.26486,1.45671 -0.10965,0.29228 -0.15904,0.64255 -0.33107,0.90489 -1.01294,1.54478 -3.10664,0.95971 -4.56878,1.08154 -0.54693,0.0455 -1.02924,0.26486 -1.58914,0.26486 0,-2.20004 2.86681,-2.70379 4.50257,-3.08996 0.75735,-0.17891 1.48426,-0.47674 2.25128,-0.61804 z"
       id="path156448" /></g></svg>
